<svg id="Capa_1" data-name="Capa 1" xmlns="http://www.w3.org/2000/svg" viewBox="0 0 30 30"><defs><style>.cls-1{fill:#bf0811;}</style></defs><title>8</title><path class="cls-1" d="M25.61,21.71h-19a2.57,2.57,0,0,1-2.58-2.57V8.63a.34.34,0,0,1,.34-.34H25.61a.34.34,0,0,1,.34.34V21.44A.33.33,0,0,1,25.61,21.71ZM4.66,8.9V19.14a2,2,0,0,0,2,2H25.34V8.9Z"/><path class="cls-1" d="M11,16.49c-1.83,0-3.26.48-3.26,1s1.43,1,3.26,1,3.32-.48,3.32-1-1.49-1-3.32-1M15.71,16c-.88,0-1.63.2-1.63.47s.75.48,1.63.48,1.7-.21,1.7-.48-.75-.47-1.7-.47M18,15.81c-.34,0-.68.07-.68.21s.34.2.68.2.61-.14.61-.2-.27-.21-.61-.21M18,13a.34.34,0,1,0-.34-.34A.34.34,0,0,0,18,13"/><path class="cls-1" d="M17.61,15.47h.61V13.31h-.61Zm-1.22-2.71c-.14,0-.27.07-.27.21l-.41,1.49L15.37,13a.33.33,0,0,0-.34-.21h-.47l-.34,2.71h.47L15,13.58l.47,1.89H16l.48-1.89.27,1.89h.54l-.41-2.71Zm2.24,2.71h.61v-3h-.61Zm3.93-1.28c-.27-.14-.34-.14-.34-.27s.07-.21.27-.21h.27c.21.07.27,0,.27-.2v-.14h-.54c-.47,0-.81.21-.81.61a.67.67,0,0,0,.47.68c.27.07.48.07.48.27s-.07.21-.34.21H22c-.2-.07-.27,0-.27.2v.13h.68c.47,0,.81-.2.81-.67s-.27-.55-.61-.61m-2-.88a.94.94,0,0,0-1,.86,1.55,1.55,0,0,0,0,.22.94.94,0,0,0,.79,1.08.71.71,0,0,0,.29,0h.68v-.13c0-.2,0-.27-.27-.27h-.34c-.41,0-.54-.21-.54-.61h1.29c.06,0,.06-.14.06-.21a.87.87,0,0,0-.8-.94h-.14m.33.81h-.74c.09-.27.22-.41.41-.41S20.86,13.92,20.86,14.12ZM9.75,15.47h.61V13.31H9.75ZM8.53,12.76H7.92v2.71h.94a.47.47,0,0,0,.55-.33L9.54,15h-1Zm1.55-.4a.34.34,0,1,0,0,.67.34.34,0,1,0,0-.67m3.06,1a.94.94,0,0,0-1,.86,1.55,1.55,0,0,0,0,.22.94.94,0,0,0,.79,1.08.71.71,0,0,0,.29,0h.68v-.13c0-.2,0-.27-.27-.27h-.34c-.41,0-.54-.21-.54-.61H14v-.21a.82.82,0,0,0-.67-.94h-.21m.33.81h-.74a.41.41,0,0,1,.41-.41h0A.41.41,0,0,1,13.47,14.12Zm-1.15-.81h-.74v-.14c0-.2.06-.27.27-.27h.34v-.41h-.48c-.47,0-.74.2-.74.68v.2h-.34v.48H11v1.69h.61V13.78h.06a.55.55,0,0,0,.55-.27Z"/></svg>