<svg id="Capa_1" data-name="Capa 1" xmlns="http://www.w3.org/2000/svg" viewBox="0 0 30 30"><defs><style>.cls-1{fill:#bf0811;}</style></defs><title>14</title><path class="cls-1" d="M10.69,23.76h-.44c0-.22.11-1.91.76-2.46s1.86-.38,2.57-.33l.16-.76a3.7,3.7,0,0,1-1.42-2.78c0-2.24.93-3.34,2.68-3.34s2.68,1.1,2.68,3.34a3.8,3.8,0,0,1-1.42,2.78l.16.76c.6,0,2.29,0,2.84.5a3.49,3.49,0,0,1,.49,2.29h-.44c0-.66,0-1.75-.32-2a7.37,7.37,0,0,0-2.73-.38H16l-.28-1.36.11-.11a3.37,3.37,0,0,0,1.37-2.51c0-2.57-1.26-2.9-2.24-2.9s-2.24.93-2.24,2.9a3.38,3.38,0,0,0,1.37,2.51l.11.11L14,21.41h-.22a6.55,6.55,0,0,0-2.45.22A5,5,0,0,0,10.69,23.76Z"/><path class="cls-1" d="M9.16,11.15H9c-.05-.06-.05-.06-.05-.11h0c0-.11,0-.17.05-.17a.11.11,0,0,1,.09-.13.1.1,0,0,1,.13.08h.11c.06,0,.06,0,.06.16a.27.27,0,0,1-.06.17Z"/><path class="cls-1" d="M9.27,20.92H9.1a.19.19,0,0,1,0-.16v-.11h0a.22.22,0,0,1,.31,0l0,0h.06v.11a.25.25,0,0,1-.06.16Z"/><path class="cls-1" d="M8.28,19.72c0-.11,0-.22.11-.33h0a.23.23,0,0,1,.28.11h0c.11.11.05.22-.06.33H8.5C8.39,19.83,8.34,19.83,8.28,19.72Zm-.6-1.2a.22.22,0,0,1,.08-.3.16.16,0,0,1,.09,0h0c.11-.06.22,0,.27.16h0a.23.23,0,0,1-.11.28H7.9ZM7.3,17.21a.28.28,0,0,1,.22-.28h0c.11-.05.22.06.27.17h0a.27.27,0,0,1-.22.27h0A.29.29,0,0,1,7.3,17.21Zm-.11-1.37a.27.27,0,0,1,.22-.27h0c.16,0,.22.11.22.27h0a.22.22,0,0,1-.22.22h0A.22.22,0,0,1,7.19,15.84Zm.28-1.09c-.11-.05-.22-.16-.17-.27h0c0-.17.11-.22.27-.22h0c.11.05.22.16.17.27h0a.22.22,0,0,1-.22.22Zm.32-1.31a.22.22,0,0,1-.19-.24.16.16,0,0,1,0-.09h0A.22.22,0,0,1,7.9,13h0c.17.06.22.17.17.28h0c-.06.1-.11.16-.22.16Zm.49-1.26a.21.21,0,0,1-.1-.27h0c.1-.11.21-.16.32-.11h0a.27.27,0,0,1,.11.33h0l-.22.11H8.28Z"/><polygon class="cls-1" points="9.43 11.36 9.65 10.33 8.67 10.65 9.43 11.36"/><path class="cls-1" d="M20.3,10.55h-.17v-.39h.11c.06-.05.17,0,.22.06h.05v.11l-.1.16C20.46,10.55,20.41,10.55,20.3,10.55Z"/><path class="cls-1" d="M21.77,19.17a.28.28,0,0,1-.11-.33h0a.27.27,0,0,1,.33-.1h0a.27.27,0,0,1,.11.32h0l-.22.11Zm.49-1.25a.28.28,0,0,1-.16-.28h0c0-.11.16-.21.27-.16h0a.16.16,0,0,1,.21.11.16.16,0,0,1,0,.16h0c0,.11-.1.17-.21.17Zm.27-1.31a.28.28,0,0,1-.21-.28h0a.21.21,0,0,1,.26-.16h0a.22.22,0,0,1,.22.22h0a.22.22,0,0,1-.22.22Zm-.21-1.53a.28.28,0,0,1,.21-.28h0a.4.4,0,0,1,.28.22h0a.42.42,0,0,1-.22.28h-.06a.21.21,0,0,1-.21-.22Zm-.22-1.31h0c-.06-.11,0-.22.16-.28h0c.11,0,.27.06.27.17h0c.06.16,0,.27-.16.27h-.05C22.21,14,22.15,13.88,22.1,13.77Zm-.44-1.2a.23.23,0,0,1,.11-.28h0a.21.21,0,0,1,.27.11h0c.11.11.06.22-.11.27h-.05C21.77,12.73,21.72,12.67,21.66,12.57ZM21,11.47c-.06-.11-.06-.27,0-.32h0a.27.27,0,0,1,.33,0h0a.28.28,0,0,1-.06.33h-.16Z"/><path class="cls-1" d="M21.22,20.32c-.1,0-.16,0-.16-.06S21,20.15,21,20.1l.11-.16c.06-.06.22-.11.27,0l.11.16a.26.26,0,0,1-.11.16C21.28,20.32,21.28,20.32,21.22,20.32Z"/><polygon class="cls-1" points="20.84 19.66 20.73 20.7 21.72 20.32 20.84 19.66"/><path class="cls-1" d="M10.91,9.34l-.28-.1c-.05-.06-.05-.11-.05-.22V8H11v.87h7.92c-.16-.43-.71-1.09-2.29-.93a25.92,25.92,0,0,1-3.17.28h0V7.71h0a29.36,29.36,0,0,0,3.11-.22c2.24-.28,2.73,1,2.84,1.47s0,.17-.05.22a.27.27,0,0,1-.22.16Z"/><rect class="cls-1" x="13.07" y="6.07" width="0.44" height="3.34" transform="translate(-2.04 8.99) rotate(-34.9)"/></svg>