<svg id="Capa_1" data-name="Capa 1" xmlns="http://www.w3.org/2000/svg" viewBox="0 0 30 30"><defs><style>.cls-1{fill:#bf0811;}</style></defs><title>10</title><path class="cls-1" d="M6.49,19.48a.26.26,0,0,1-.31-.2h0l-.48-1.1L6.12,18l.43,1,8.58-3.8c-.37-.37-1.31-.94-3,.06-.68.42-2.47,1.42-3.32,1.79l-.15-.42c.79-.37,2.58-1.37,3.21-1.74,2.26-1.37,3.42-.21,3.74.21a.34.34,0,0,1,.05.26.43.43,0,0,1-.21.21l-8.85,3.9Z"/><rect class="cls-1" x="8.26" y="14.62" width="0.47" height="3.92" transform="matrix(0.52, -0.85, 0.85, 0.52, -10.08, 15.16)"/><rect class="cls-1" x="5.49" y="21.01" width="11.01" height="0.46"/><path class="cls-1" d="M15,16.32H15a5,5,0,0,0,4.32,2.42,5.11,5.11,0,1,0-5.06-5.16v.11l.58.21v-.16a4.53,4.53,0,1,1,4.58,4.48h-.1A4.18,4.18,0,0,1,15.5,16Z"/><path class="cls-1" d="M19.35,9.84a3.9,3.9,0,1,0,3.89,3.9,3.9,3.9,0,0,0-3.89-3.9ZM19.66,17v-.9a.31.31,0,0,0-.31-.31h0a.31.31,0,0,0-.27.31V17a3.38,3.38,0,0,1-3-3H17a.3.3,0,0,0,.31-.26.32.32,0,0,0-.31-.32h-.9a3.26,3.26,0,0,1,3-2.94v.84c0,.21.11.31.27.31a.31.31,0,0,0,.31-.31h0v-.84a3.15,3.15,0,0,1,2.95,2.94h-.84a.32.32,0,0,0-.32.32h0a.31.31,0,0,0,.32.26h.84A3.27,3.27,0,0,1,19.66,17Z"/><path class="cls-1" d="M21.35,11.74c-.11-.16-.27-.16-.42,0l-1.58,1.58-1-1a.31.31,0,0,0-.42,0,.27.27,0,0,0-.06.37l.06.05L19.13,14h.43l1.79-1.79a.27.27,0,0,0,0-.37Z"/></svg>