<svg id="Capa_1" data-name="Capa 1" xmlns="http://www.w3.org/2000/svg" viewBox="0 0 30 30"><defs><style>.cls-1{fill:#bf0811;}</style></defs><title>20</title><path class="cls-1" d="M10.54,18.89a.53.53,0,0,1-.12,0l.06,0Z"/><path class="cls-1" d="M9.85,21.28a.08.08,0,0,0,0,0C9.84,21.4,9.84,21.34,9.85,21.28Z"/><path class="cls-1" d="M10.54,21.55a.27.27,0,0,1-.27-.27V20.19a.27.27,0,0,1,.27-.27h8.92a.27.27,0,0,1,.27.27v1.09a.27.27,0,0,1-.27.27H19a.61.61,0,0,1,.15.17h.88l.27-.17a.9.9,0,0,0,.22-.7c0-.87.05-2.4.05-3.1v-.11h.6a.5.5,0,0,0,.49-.44V17a.49.49,0,0,0-.49-.49H20V6.87a2.06,2.06,0,0,0-2-2H12.06a2.06,2.06,0,0,0-2,2v9.68H8.8a.49.49,0,0,0-.49.49v.16a.5.5,0,0,0,.49.44h.6v3.21a.88.88,0,0,0,.27.7l.27.17h1.11a.65.65,0,0,1,.16-.17ZM21.2,16.77a.27.27,0,0,1,.27.27v.16a.27.27,0,0,1-.27.27H19.79a.28.28,0,0,1-.28-.27V17a.28.28,0,0,1,.28-.27ZM10.27,6.82a1.84,1.84,0,0,1,1.85-1.74h5.82a1.79,1.79,0,0,1,1.79,1.79v9.68h-.05a.42.42,0,0,0-.38.43v.22a.43.43,0,0,0,.38.44h.05v.7a.28.28,0,0,1-.27.28H10.54a.28.28,0,0,1-.27-.28v-.7h.05a.43.43,0,0,0,.38-.44V17a.43.43,0,0,0-.38-.44h-.05ZM8.8,17.47a.27.27,0,0,1-.27-.27V17a.27.27,0,0,1,.27-.27h1.47a.27.27,0,0,1,.27.27v.16a.32.32,0,0,1-.27.27Zm1.31,2.72v1.36H10l-.17-.11a.74.74,0,0,1-.16-.54c0-.87-.05-2.39-.05-3.1v-.11h.49v.71a.42.42,0,0,0,.31.46.53.53,0,0,0,.12,0h8.92A.49.49,0,0,0,20,18.4v-.76h.43v3.21a.67.67,0,0,1-.16.54l-.16.11-.17.05V20.19a.42.42,0,0,0-.43-.43s0,0-.06,0H10.54A.43.43,0,0,0,10.11,20.19Z"/><path class="cls-1" d="M21.2,16.39H20.11V6.87a2.18,2.18,0,0,0-2.17-2.18H12.06A2.18,2.18,0,0,0,9.89,6.87v9.52H8.8a.65.65,0,0,0-.65.65v.22a.6.6,0,0,0,.65.54h.44v3.05a1,1,0,0,0,.32.81l.33.22H11l0-.06a.23.23,0,0,1,.07-.1H9.94l-.27-.17a.88.88,0,0,1-.27-.7V17.64H8.8a.5.5,0,0,1-.49-.44V17a.49.49,0,0,1,.49-.49h1.25V6.87a2.06,2.06,0,0,1,2-2h5.88a2.06,2.06,0,0,1,2,2v9.68H21.2a.49.49,0,0,1,.49.49v.16a.5.5,0,0,1-.49.44h-.6v.11c0,.7-.05,2.23-.05,3.1a.9.9,0,0,1-.22.7l-.27.17h-.88a.44.44,0,0,1,.06.16h.87l.33-.22a.91.91,0,0,0,.27-.81c0-.87.05-2.29.05-3.05h.5a.59.59,0,0,0,.59-.6V17A.65.65,0,0,0,21.2,16.39Z"/><path class="cls-1" d="M10.7,17v.16a.43.43,0,0,1-.38.44h-.05v.7a.28.28,0,0,0,.27.28h8.92a.28.28,0,0,0,.27-.28v-.7h-.05a.43.43,0,0,1-.38-.44V17a.42.42,0,0,1,.38-.43h.05V6.87a1.79,1.79,0,0,0-1.79-1.79H12.12a1.84,1.84,0,0,0-1.85,1.74V16.6h.05A.43.43,0,0,1,10.7,17ZM10.43,6.87V6.81a1.63,1.63,0,0,1,1.69-1.57h5.93a1.58,1.58,0,0,1,1.52,1.63v9.57a.66.66,0,0,0-.44.6v.16a.66.66,0,0,0,.44.6v.54l-.11.11H10.54a.11.11,0,0,1-.11-.11V17.8a.66.66,0,0,0,.44-.6V17a.6.6,0,0,0-.44-.6Z"/><path class="cls-1" d="M19.4,19.76s0,0,.06,0a.42.42,0,0,1,.43.43v1.36l.17-.05.16-.11a.67.67,0,0,0,.16-.54V17.64H20v.76a.49.49,0,0,1-.49.49h-9l-.06,0a.42.42,0,0,1-.31-.46v-.71H9.62v.11c0,.71.05,2.23.05,3.1a.74.74,0,0,0,.16.54l.17.11h.11V20.19a.43.43,0,0,1,.43-.43Zm-9.51.43v1s0,0,0,.05,0,.12,0,0v-.39c0-.87-.05-2.29-.05-3.05h.11v.54a.66.66,0,0,0,.65.66h8.92a.66.66,0,0,0,.65-.66V17.8h.11v3.05a.67.67,0,0,1-.11.38v-1a.65.65,0,0,0-.65-.65l-8.92.06A.64.64,0,0,0,9.89,20.19Z"/><path class="cls-1" d="M10.54,17.2V17a.27.27,0,0,0-.27-.27H8.8a.27.27,0,0,0-.27.27v.16a.27.27,0,0,0,.27.27h1.47A.32.32,0,0,0,10.54,17.2Zm-1.85,0V17l.11-.11h1.47c.05,0,.05.05.05.11v.16c0,.06,0,.06-.05.06H8.8C8.75,17.26,8.69,17.26,8.69,17.2Z"/><path class="cls-1" d="M19.51,17v.16a.28.28,0,0,0,.28.27H21.2a.27.27,0,0,0,.27-.27V17a.27.27,0,0,0-.27-.27H19.79A.28.28,0,0,0,19.51,17Zm.17,0,.11-.11H21.2a.11.11,0,0,1,.11.11v.16c0,.06-.06.06-.11.06H19.79c-.06,0-.11,0-.11-.06Z"/><path class="cls-1" d="M19.73,21.28V20.19a.27.27,0,0,0-.27-.27H10.54a.27.27,0,0,0-.27.27v1.09a.27.27,0,0,0,.27.27h.67a.66.66,0,0,1,.36-.11H18.7a.55.55,0,0,1,.33.11h.43A.27.27,0,0,0,19.73,21.28Zm-8.16.11h-1a.11.11,0,0,1-.11-.11V20.19a.11.11,0,0,1,.11-.11h8.92a.11.11,0,0,1,.11.11v1.09a.11.11,0,0,1-.11.11Z"/><path class="cls-1" d="M19,21.55a.55.55,0,0,0-.33-.11H11.57a.66.66,0,0,0-.36.11.65.65,0,0,0-.16.17.23.23,0,0,0-.07.1l0,.06-.69,2.66a.64.64,0,0,0,.11.55.69.69,0,0,0,.43.22h8.54a.74.74,0,0,0,.49-.22.64.64,0,0,0,.11-.55l-.71-2.66a.44.44,0,0,0-.06-.16A.61.61,0,0,0,19,21.55Zm.43,3.19-8.7-.09.71-2.72h.1s7.22,0,7.22,0Z"/><path class="cls-1" d="M15.17,6.09l.66,2.05H18a.12.12,0,0,1,.16.1.13.13,0,0,1-.09.16L16.29,9.66,17,11.77c.07.13-.06.2-.2.13L15,10.65,13.25,11.9c-.13.07-.26,0-.2-.13l.66-2.11L11.93,8.4a.13.13,0,0,1-.1-.16.13.13,0,0,1,.17-.1h2.18l.66-2.05A.2.2,0,0,1,15.11,6Z"/></svg>