<?xml version="1.0" encoding="utf-8"?>
<!-- Generator: Adobe Illustrator 24.1.0, SVG Export Plug-In . SVG Version: 6.00 Build 0)  -->
<svg version="1.1" id="Layer_5" xmlns="http://www.w3.org/2000/svg" xmlns:xlink="http://www.w3.org/1999/xlink" x="0px" y="0px"
	 viewBox="0 0 47.4 46.5" style="enable-background:new 0 0 47.4 46.5;" xml:space="preserve">
<style type="text/css">
	.st0{fill:#E00817;}
	.st1{fill:#FFFFFF;}
</style>
<g>
	<path class="st0" d="M8.8,36.7c-0.3-0.3-0.8-0.3-1.1,0c-0.3,0.2-0.4,0.7-0.1,1c0,0,0.1,0.1,0.1,0.1l0,0L8.3,38l0.5-0.2
		c0.3-0.3,0.4-0.8,0.1-1S8.9,36.7,8.8,36.7z"/>
	<path class="st1" d="M8.3,38.1l-0.7-0.2c-0.1,0-0.1-0.1-0.1-0.1c-0.3-0.4-0.2-0.9,0.1-1.2c0.3-0.3,0.8-0.3,1.2,0c0,0,0,0,0,0l0.1,0
		l0,0.1c0,0,0,0,0,0c0.1,0.1,0.2,0.2,0.2,0.4c0,0.3-0.1,0.6-0.3,0.8l0,0L8.3,38.1z M7.8,37.7l0.5,0.2l0.4-0.2
		C8.9,37.5,9,37.3,9,37.1c0-0.1-0.1-0.2-0.1-0.2c-0.1,0-0.2-0.1-0.2-0.2c-0.3-0.2-0.6-0.2-0.9,0.1C7.5,37,7.5,37.4,7.8,37.7
		C7.7,37.6,7.7,37.7,7.8,37.7z"/>
</g>
<g>
	<path class="st0" d="M42.4,13.2l-9.7-9.7c-0.7-0.7-1.6-1.1-2.6-1c-1,0-1.9,0.4-2.6,1L13.7,17.4c-0.2,0.2-0.3,0.4-0.3,0.6v1.6
		c0,0.2-0.1,0.3-0.3,0.3h-1.6c-0.2,0-0.4,0.1-0.6,0.3L3,28c-0.7,0.7-1,1.6-1,2.6c-0.1,1,0.3,1.9,1,2.6l2.4,2.4
		c0.1,0.2,0.4,0.2,0.6,0.2s0.4,0,0.5-0.2c0.3-0.2,0.4-0.7,0.1-1c0,0-0.1-0.1-0.1-0.1l0,0l-2.3-2.4c-0.8-0.8-0.8-2-0.1-2.8
		c0-0.1,0-0.1,0.1-0.1c0,0,0,0,0,0l7.6-7.6h1.3c1,0.1,1.8-0.7,1.9-1.7c0-0.1,0-0.1,0-0.2l0,0v-1.3L28.7,4.7c0.8-0.8,2-0.8,2.8-0.1
		l0,0l9.8,9.7c0.7,0.8,0.7,2,0,2.8l-8.2,8.3c-0.4,0.3-0.4,0.8-0.2,1.1c0,0,0,0.1,0.1,0.1h0.1c0.3,0.3,0.7,0.3,1,0c0,0,0,0,0,0
		l8.3-8.3c1.4-1.4,1.5-3.7,0.1-5.1c0,0-0.1-0.1-0.1-0.1L42.4,13.2z"/>
	<path class="st1" d="M6,35.9c-0.2,0-0.6,0-0.7-0.2l-2.4-2.4c-0.7-0.7-1.1-1.7-1-2.7c0-1,0.3-2,1-2.7l7.9-7.8
		c0.2-0.2,0.4-0.3,0.7-0.3l1.6,0c0.1,0,0.2-0.1,0.2-0.2V18c0-0.3,0.1-0.5,0.3-0.7L27.4,3.4c0.7-0.7,1.7-1,2.7-1c1-0.1,2,0.3,2.7,1
		l9.5,9.5v-0.1l0.2,0.2c0,0,0.1,0.1,0.1,0.1c1.4,1.5,1.4,3.8-0.1,5.3l-8.3,8.3c-0.3,0.3-0.8,0.3-1.1,0h-0.1l0,0c0,0-0.1-0.1-0.1-0.1
		c-0.1-0.2-0.2-0.4-0.2-0.7s0.2-0.5,0.4-0.6l8.2-8.3c0.6-0.8,0.6-1.9,0-2.6l-9.8-9.7C30.7,4,29.5,4,28.8,4.8L15.1,18.5v1.2
		c0,0.1,0,0.1,0,0.2c0,0.5-0.3,1-0.6,1.3c-0.4,0.3-0.9,0.5-1.4,0.5h-1.2l-7.6,7.6h0v0l0,0c-0.7,0.7-0.6,1.9,0.1,2.6l2.3,2.4
		c0,0,0.1,0.1,0.1,0.1c0.1,0.2,0.2,0.4,0.2,0.6c0,0.2-0.1,0.4-0.3,0.5C6.5,35.9,6.2,35.9,6,35.9z M11.5,20c-0.2,0-0.4,0.1-0.5,0.3
		l-7.9,7.8c-0.7,0.7-1,1.6-1,2.5c-0.1,1,0.3,1.9,1,2.5l2.4,2.4c0.1,0.1,0.3,0.1,0.5,0.1c0.2,0,0.3,0,0.4-0.1l0,0
		c0.1-0.1,0.2-0.2,0.2-0.4c0-0.2,0-0.3-0.1-0.4c0,0-0.1-0.1-0.1-0.1l-2.3-2.4c-0.8-0.8-0.9-2.1-0.1-2.9c0-0.1,0.1-0.1,0.2-0.2
		l7.6-7.6h1.4c0.5,0,0.9-0.1,1.2-0.4c0.3-0.3,0.5-0.7,0.6-1.2c0-0.1,0-0.1,0-0.2v-1.4L28.6,4.6c0.8-0.8,2.1-0.9,3-0.1l9.8,9.7
		c0.7,0.9,0.7,2.1,0,3l-8.2,8.3c-0.2,0.1-0.3,0.3-0.3,0.5c0,0.2,0,0.4,0.1,0.5c0,0,0,0,0,0h0.1l0,0c0.1,0.1,0.3,0.2,0.4,0.2
		c0,0,0,0,0,0c0.2,0,0.3-0.1,0.4-0.2l8.3-8.3c1.3-1.3,1.4-3.4,0.2-4.8v0.1l-0.2-0.2l-9.7-9.7c-0.6-0.7-1.6-1-2.5-1
		c-0.9,0-1.8,0.4-2.5,1L13.8,17.5c-0.2,0.1-0.2,0.3-0.3,0.5l0,1.6c0,0.2-0.2,0.4-0.4,0.4H11.5z"/>
</g>
<g>
	<path class="st0" d="M28.4,30.1l-0.8,0.8h-1.3c-1,0-1.9,0.8-1.9,1.9c0,0,0,0.1,0,0.1v1.2l-7.7,7.7c-0.8,0.8-2,0.8-2.8,0.1
		c0-0.1,0-0.1-0.1-0.1L11.2,39c-0.3-0.3-0.9-0.3-1.2,0c-0.3,0.3-0.3,0.9,0,1.2l0,0l2.7,2.8c0.7,0.6,1.6,1,2.6,1c1,0,1.9-0.4,2.6-1
		l7.9-8c0.1-0.2,0.2-0.3,0.2-0.5v-1.6c0-0.2,0.1-0.4,0.3-0.4H28l0.5-0.2l1.1-1.1c0.3-0.3,0.3-0.8,0-1.1l0,0
		C29.3,29.8,28.7,29.8,28.4,30.1z"/>
	<path class="st1" d="M15.3,44.1c-1,0-1.9-0.4-2.7-1l-2.7-2.8c-0.2-0.2-0.3-0.4-0.3-0.7s0.1-0.5,0.3-0.7c0.4-0.4,1-0.4,1.4,0
		l2.6,2.8c0.1,0,0.2,0.1,0.2,0.2c0.8,0.6,1.9,0.6,2.6-0.1l7.7-7.7v-1.1c0,0,0-0.1,0-0.1c0-0.5,0.2-1,0.6-1.4
		c0.4-0.4,0.9-0.6,1.4-0.6c0,0,0,0,0,0h1.2l0.8-0.8c0.4-0.3,1-0.3,1.4,0c0.3,0.4,0.3,0.9,0,1.3l-1.1,1.1L28,32.6h-1.7
		c-0.1,0-0.2,0.2-0.2,0.3v1.6c0,0.2-0.1,0.3-0.1,0.4c0,0,0,0.1-0.1,0.1l0,0l-7.9,8C17.2,43.7,16.3,44.1,15.3,44.1z M10.6,38.9
		c-0.2,0-0.4,0.1-0.5,0.2c-0.1,0.1-0.2,0.3-0.2,0.5s0.1,0.4,0.2,0.5l2.7,2.8c0.7,0.6,1.6,1,2.5,1c0.9,0,1.8-0.4,2.5-1l7.9-8
		c0,0,0-0.1,0.1-0.1c0.1-0.1,0.1-0.2,0.1-0.3v-1.6c0-0.3,0.2-0.5,0.4-0.5H28l0.5-0.2l1.1-1.1c0.2-0.3,0.2-0.7,0-0.9
		c-0.3-0.3-0.7-0.3-1,0L27.7,31h-1.4c0,0,0,0,0,0c-0.5,0-0.9,0.2-1.3,0.5c-0.3,0.3-0.5,0.8-0.5,1.3c0,0,0,0.1,0,0.1v1.3l0,0
		l-7.7,7.7c-0.8,0.8-2.1,0.9-3,0.1l0,0v0h0l-2.6-2.8C11,38.9,10.8,38.9,10.6,38.9z"/>
</g>
<g>
	<path class="st0" d="M16.7,22c-0.4-0.2-0.8-0.2-1.2,0c-0.2,0.4-0.2,0.8,0,1.2l1,1l0.6,0.2l0.6-0.2c0.2-0.4,0.2-0.8,0-1.2L16.7,22z"
		/>
	<path class="st1" d="M17.1,24.5l-0.7-0.2l-1-1c-0.2-0.4-0.2-0.9,0-1.3l0,0l0,0c0.4-0.2,0.9-0.2,1.3,0l0,0l1,1
		c0.2,0.4,0.2,0.9,0,1.3l0,0L17.1,24.5z M16.6,24.1l0.5,0.2l0.5-0.2c0.2-0.3,0.1-0.7,0-1l-1-1c-0.3-0.2-0.7-0.2-1,0
		c-0.2,0.3-0.2,0.7,0,1L16.6,24.1z"/>
</g>
<g>
	<path class="st0" d="M19.9,27.6l0.6,0.3l0.6-0.3c0.3-0.3,0.3-0.9,0-1.2l0,0l-1.3-1.1c-0.2-0.3-0.6-0.4-1-0.2c0,0-0.1,0.1-0.1,0.1
		l0,0c-0.3,0.3-0.3,0.7,0,1c0,0,0,0,0,0L19.9,27.6z"/>
	<path class="st1" d="M20.5,28l-0.7-0.4l-1.2-1.4c-0.2-0.2-0.2-0.4-0.2-0.6c0-0.2,0.1-0.4,0.2-0.6c0,0,0.1-0.1,0.2-0.1
		c0.4-0.2,0.9-0.1,1.1,0.2l1.3,1.1c0.4,0.4,0.4,1,0,1.4l0,0L20.5,28z M20,27.5l0.5,0.3l0.5-0.3c0.2-0.3,0.2-0.7,0-1l-1.3-1.1
		c-0.2-0.3-0.5-0.3-0.8-0.2c0,0-0.1,0.1-0.1,0.1c-0.1,0.1-0.2,0.3-0.2,0.4c0,0.2,0.1,0.3,0.2,0.4L20,27.5z"/>
</g>
<g>
	<path class="st0" d="M23.6,30.9l0.5-0.3c0.3-0.1,0.4-0.4,0.3-0.6c0-0.1-0.1-0.1-0.1-0.2c0-0.1-0.1-0.2-0.2-0.2h0l-1-1.1
		c-0.4-0.2-0.9-0.1-1.1,0.3c-0.2,0.3-0.2,0.6,0,0.8l1,1C23.1,30.8,23.4,30.9,23.6,30.9z"/>
	<path class="st1" d="M23.5,31c-0.3,0-0.5-0.1-0.6-0.4l-1-1c-0.2-0.3-0.2-0.7,0-1c0.3-0.4,0.8-0.6,1.3-0.3l0,0l1,1.1
		c0.1,0,0.2,0.1,0.3,0.3c0,0,0.1,0.1,0.1,0.2c0.1,0.2,0.1,0.3,0,0.5c-0.1,0.2-0.2,0.3-0.4,0.3L23.5,31C23.6,31,23.6,31,23.5,31z
		 M22.7,28.5c-0.1,0-0.1,0-0.2,0c-0.2,0-0.3,0.1-0.4,0.3c-0.1,0.2-0.1,0.5,0,0.7l1,1c0.1,0.2,0.3,0.3,0.5,0.2l0.5-0.3
		c0.1,0,0.2-0.1,0.2-0.2c0-0.1,0-0.2,0-0.3c0,0,0-0.1-0.1-0.1l0,0v0c0,0,0-0.1-0.1-0.1H24l-1-1.1C22.9,28.5,22.8,28.5,22.7,28.5z"/>
</g>
<g>
	<path class="st0" d="M31.9,20.8L30.6,20v-0.9l4.8,1.4h0.2l0.5-0.2c0.2-0.1,0.4-0.4,0.4-0.6v-1.8l-0.3-0.6l-5.6-4.5v-1.2
		c0-1.4-0.7-2.8-1.8-3.7c-0.3-0.1-0.7-0.1-1,0c-1.2,0.8-1.9,2.2-1.9,3.7v1.2l-5.4,4.5c-0.2,0.2-0.3,0.4-0.3,0.6v1.9
		c0,0.2,0.1,0.5,0.3,0.6l0.5,0.2h0.2l4.7-1.4v0.9l-1.2,0.8c-0.2,0.1-0.4,0.4-0.4,0.7v2.3c0,0.3,0.2,0.6,0.4,0.7
		c0.2,0.2,0.5,0.2,0.7,0.1l2.9-1l2.9,1h0.7c0.2-0.1,0.4-0.4,0.4-0.7v-2.5C32.3,21.2,32.1,21,31.9,20.8z M34.8,18.4v0.2l-4.2-1.2
		v-2.5L34.8,18.4z M21.8,18.6v-0.2l4.1-3.5v2.5L21.8,18.6z M30.6,22.8l-2-0.7h-0.5l-2.2,0.7V22l1.3-0.8c0.2-0.2,0.4-0.5,0.3-0.8
		v-2.5l0,0v-6.3c0-0.7,0.3-1.5,0.8-2c0.5,0.6,0.7,1.3,0.7,2v6.3l0,0v2.5c0,0.3,0.2,0.6,0.4,0.8l1.2,0.8L30.6,22.8z"/>
	<path class="st1" d="M25.1,24.9c-0.2,0-0.4-0.1-0.5-0.2c-0.3-0.2-0.5-0.5-0.4-0.8v-2.3c0-0.3,0.2-0.6,0.5-0.8l1.1-0.8v-0.7
		l-4.6,1.4l-0.2,0l-0.5-0.2c-0.3-0.2-0.4-0.4-0.4-0.7v-1.9c0-0.3,0.1-0.5,0.3-0.7l5.4-4.5v-1.1c0-1.5,0.7-2.9,2-3.8l0,0
		c0.4-0.1,0.7-0.1,1.1,0l0,0c1.2,0.9,1.8,2.3,1.8,3.8v1.1l5.6,4.5l0.3,0.7v1.8c-0.1,0.3-0.2,0.6-0.5,0.7l-0.6,0.2l-0.2,0l-4.6-1.4
		v0.7l1.2,0.8c0.3,0.2,0.4,0.5,0.4,0.8l0,2.5c0,0.3-0.2,0.6-0.5,0.8l0,0l-0.8,0l-2.9-1l-2.9,1C25.3,24.9,25.2,24.9,25.1,24.9z
		 M26,19v1.1L24.8,21c-0.2,0.1-0.3,0.4-0.3,0.6v2.3c0,0.2,0.1,0.5,0.3,0.6l0,0c0.1,0.1,0.4,0.2,0.6,0.1l3-1l2.9,1h0.6
		c0.2-0.1,0.3-0.3,0.3-0.6v-2.5c0-0.2-0.2-0.5-0.3-0.6l-1.4-0.8v-1.1l4.9,1.4h0.2l0.5-0.2c0.2-0.1,0.3-0.3,0.3-0.5l0-1.7l-0.3-0.5
		l-5.6-4.5v-1.3c0-1.4-0.6-2.7-1.7-3.6c-0.3-0.1-0.6-0.1-0.9,0c-1.2,0.8-1.8,2.2-1.8,3.6v1.3l-5.4,4.5c-0.1,0.1-0.2,0.3-0.3,0.5
		l0,1.9c0,0.2,0.1,0.4,0.2,0.5l0.5,0.2h0.2L26,19z M30.7,23l-2.1-0.8h-0.5L25.8,23v-1l1.4-0.8c0.2-0.1,0.3-0.4,0.2-0.7l0-8.8
		c0-0.8,0.3-1.5,0.8-2.1l0.1-0.1l0.1,0.1c0.5,0.6,0.7,1.3,0.7,2.1v8.8c0,0.3,0.1,0.5,0.4,0.7l1.2,0.8V23z M26,22.1v0.6l2.1-0.7
		l0.5,0l1.8,0.6v-0.6l-1.1-0.8c-0.3-0.2-0.4-0.6-0.5-0.9v-8.8c0-0.6-0.2-1.3-0.6-1.8c-0.4,0.5-0.7,1.1-0.7,1.8v8.8
		c0.1,0.3-0.1,0.7-0.3,0.9L26,22.1z M21.7,18.8v-0.4l4.4-3.7v2.9L21.7,18.8z M25.8,15.2L22,18.4l3.8-1.1V15.2z M34.9,18.8l-4.5-1.3
		v-2.9l4.5,3.7V18.8z M30.7,17.3l3.9,1.1l-3.9-3.3V17.3z"/>
</g>
<g>
	<path class="st0" d="M14.1,26.9c-0.3-0.3-0.8-0.3-1.1,0l-4.4,4.4c-0.3,0.3-0.4,0.8-0.1,1.2h0.1c0.1,0.2,0.3,0.3,0.5,0.3
		c0.2,0,0.5-0.1,0.6-0.3l4.4-4.5C14.4,27.7,14.4,27.2,14.1,26.9z"/>
	<path class="st1" d="M9,32.9c-0.2,0-0.4-0.1-0.5-0.3H8.4l0,0c-0.3-0.4-0.3-1,0.1-1.4l4.4-4.4c0.4-0.3,0.9-0.3,1.3,0l0,0
		c0.3,0.4,0.3,0.9,0,1.3l-4.4,4.5C9.6,32.8,9.4,32.9,9,32.9C9.1,32.9,9.1,32.9,9,32.9z M8.6,32.4h0.1l0,0.1c0.1,0.1,0.2,0.2,0.4,0.2
		c0,0,0,0,0,0c0.2,0,0.4-0.1,0.5-0.2l4.4-4.5c0.2-0.3,0.2-0.7,0-0.9c-0.3-0.2-0.7-0.2-0.9,0l-4.4,4.4C8.4,31.6,8.4,32.1,8.6,32.4z"
		/>
</g>
<g>
	<path class="st0" d="M11,34.9c0.1,0.2,0.4,0.3,0.6,0.3c0.2,0,0.4-0.1,0.5-0.3l4.5-4.4c0.3-0.3,0.4-0.8,0-1.1
		c-0.3-0.3-0.8-0.4-1.1-0.1l0,0L11,33.8C10.7,34.1,10.7,34.6,11,34.9z"/>
	<path class="st1" d="M11.6,35.3C11.6,35.3,11.6,35.3,11.6,35.3c-0.3,0-0.6-0.1-0.7-0.3c-0.3-0.4-0.3-0.9,0-1.3l4.5-4.5
		c0.4-0.4,1-0.3,1.3,0.1c0.3,0.4,0.3,1-0.1,1.3L12.2,35C12.1,35.2,11.9,35.3,11.6,35.3z M11.6,35.1c0.2,0,0.3-0.1,0.4-0.2l0,0
		l4.5-4.4c0.3-0.3,0.3-0.7,0-1c-0.3-0.3-0.7-0.3-1,0l-4.5,4.5c-0.2,0.3-0.2,0.7,0,0.9l0,0C11.2,35,11.4,35.1,11.6,35.1z"/>
</g>
<g>
	<path class="st0" d="M13.5,36.3c-0.3,0.3-0.3,0.8,0,1.1l0,0c0.2,0.3,0.5,0.4,0.8,0.2l0.3-0.2l4.4-4.5c0.3-0.3,0.4-0.8,0.1-1.1H19
		c-0.3-0.3-0.8-0.3-1.1,0L13.5,36.3z"/>
	<path class="st1" d="M14,37.8c-0.2,0-0.5-0.1-0.6-0.3c-0.3-0.3-0.3-0.9,0-1.3l0,0l4.4-4.5c0.3-0.3,0.9-0.3,1.2,0h0.1l0,0
		c0.3,0.4,0.3,0.9-0.1,1.3l-4.4,4.5l-0.3,0.2C14.3,37.8,14.1,37.8,14,37.8z M13.6,36.4c-0.2,0.3-0.2,0.7,0,0.9
		c0.2,0.2,0.4,0.3,0.6,0.2l0.3-0.2l4.4-4.5c0.3-0.2,0.3-0.6,0.1-0.9H19l0,0c-0.3-0.2-0.7-0.2-0.9,0L13.6,36.4z"/>
</g>
<g>
	<path class="st0" d="M31.3,27.6l-0.6,0.2c-0.1,0.2-0.2,0.4-0.2,0.6c0,0.2,0.1,0.4,0.2,0.5c0.3,0.3,0.8,0.4,1.1,0.1c0,0,0,0,0.1-0.1
		c0.1-0.1,0.2-0.3,0.2-0.5c0-0.2-0.1-0.4-0.2-0.6L31.3,27.6z"/>
	<path class="st1" d="M31.3,29.3C31.3,29.3,31.3,29.3,31.3,29.3c-0.3,0-0.5-0.1-0.7-0.3c-0.1-0.2-0.2-0.4-0.2-0.6
		c0-0.2,0.1-0.5,0.2-0.7l0,0l0.7-0.2l0.7,0.2l0,0c0.1,0.2,0.2,0.4,0.2,0.7c0,0.2-0.1,0.4-0.2,0.6c0,0-0.1,0.1-0.1,0.1
		C31.7,29.2,31.5,29.3,31.3,29.3z M30.8,27.9c-0.1,0.1-0.1,0.3-0.2,0.5c0,0.1,0.1,0.3,0.2,0.4c0.1,0.1,0.3,0.2,0.5,0.2
		c0.2,0,0.4,0,0.5-0.2c0,0,0,0,0.1-0.1c0.1-0.1,0.2-0.3,0.2-0.4c0-0.2-0.1-0.3-0.2-0.5l-0.5-0.2L30.8,27.9z"/>
</g>
</svg>
