<svg id="Capa_1" data-name="Capa 1" xmlns="http://www.w3.org/2000/svg" viewBox="0 0 30 30"><defs><style>.cls-1{fill:#606060;}</style></defs><title>1</title><path class="cls-1" d="M20.18,11.28H18.3v-.45A1.43,1.43,0,0,0,16.88,9.4H13.12a1.36,1.36,0,0,0-1.36,1.36v.52H9.89A1.43,1.43,0,0,0,8.46,12.7v6.54A1.36,1.36,0,0,0,9.82,20.6H20.18a1.36,1.36,0,0,0,1.36-1.36h0V12.7a1.37,1.37,0,0,0-1.3-1.42Zm-7.51-.45a.51.51,0,0,1,.45-.52h3.76a.51.51,0,0,1,.45.52v.45H12.67Zm8,8.41a.45.45,0,0,1-.45.45H9.89a.52.52,0,0,1-.52-.45V12.7a.57.57,0,0,1,.52-.51H20.18a.51.51,0,0,1,.45.51Z"/><path class="cls-1" d="M14.55,14.06h.9v3.76h-.9Z"/><path class="cls-1" d="M11.76,14.06h.91v3.76h-.91Z"/><path class="cls-1" d="M17.33,14.06h1v3.76h-1Z"/></svg>