<svg xmlns="http://www.w3.org/2000/svg" width="90" height="67" viewBox="0 0 90 67"><g><g><path fill="#fff" d="M89.431 34.718a5.47 5.47 0 0 1-.28 4.203 5.465 5.465 0 0 1-3.17 2.774l-10.184 3.442.533 2.532a5.51 5.51 0 0 1-4.254 6.519L60.261 56.67l-46.223 9.717a5.512 5.512 0 0 1-6.52-4.255l-1.75-8.328a1.676 1.676 0 0 1 1.268-1.98c3.268-.744 5.366-4.02 4.676-7.3-.689-3.28-3.928-5.433-7.219-4.8a1.676 1.676 0 0 1-1.958-1.301l-1.75-8.33a5.51 5.51 0 0 1 4.254-6.517l7.597-1.598a5.463 5.463 0 0 1 3.151-2.734L71.97.25a5.478 5.478 0 0 1 4.204.282 5.469 5.469 0 0 1 2.774 3.17l2.725 8.063a1.677 1.677 0 0 1-1.024 2.116c-3.157 1.127-4.852 4.628-3.778 7.803 1.073 3.176 4.545 4.93 7.738 3.91a1.677 1.677 0 0 1 2.098 1.06zM71.61 41.504a9.474 9.474 0 0 1-5.43-1.592 9.482 9.482 0 0 1-4.058-5.983 9.485 9.485 0 0 1 1.305-7.11 9.488 9.488 0 0 1 4.329-3.644l-1.44-6.854a2.154 2.154 0 0 0-2.548-1.663l-10.173 2.138 4.199 19.979a1.676 1.676 0 1 1-3.281.69l-4.2-19.98-34.881 7.333-3.283.69-6.42 1.35a2.155 2.155 0 0 0-1.662 2.548l1.44 6.854a9.477 9.477 0 0 1 5.43 1.593 9.479 9.479 0 0 1 4.059 5.982 9.483 9.483 0 0 1-1.306 7.11 9.487 9.487 0 0 1-4.33 3.644l1.442 6.855a2.154 2.154 0 0 0 2.548 1.663l12.434-2.614 12.142-2.553 20.007-4.205-.502-2.388-.144-.688a1.676 1.676 0 1 1 3.28-.69l.063.296.584 2.78 10.173-2.138a2.154 2.154 0 0 0 1.663-2.548l-.45-2.141-.695-3.304zm14.537-4.07a2.135 2.135 0 0 0 .108-1.643l-2.243-6.634a9.484 9.484 0 0 1-5.58-.938 9.483 9.483 0 0 1-4.737-5.46 9.475 9.475 0 0 1 .453-7.215 9.478 9.478 0 0 1 3.866-4.131L75.77 4.778a2.13 2.13 0 0 0-1.083-1.24 2.142 2.142 0 0 0-1.644-.11L27.264 18.904l23.998-5.044 11.814-2.484a5.51 5.51 0 0 1 6.52 4.254l1.75 8.329a1.677 1.677 0 0 1-1.268 1.98c-3.268.745-5.367 4.019-4.677 7.3.69 3.28 3.93 5.433 7.222 4.8a1.677 1.677 0 0 1 1.957 1.3l.524 2.493 9.802-3.313a2.142 2.142 0 0 0 1.24-1.084z"/></g><g><path fill="#fff" d="M42.942 33.53a1.675 1.675 0 0 1 1.498 2.608l-4.147 6.18 2.74 6.919a1.677 1.677 0 0 1-2.017 2.23l-7.158-2.034-5.735 4.744a1.676 1.676 0 1 1-2.744-1.229l-.166-4.44-.111-2.997-1.055-.67-5.23-3.317a1.677 1.677 0 0 1 .322-2.99l4.342-1.592 2.645-.97.222-.866 1.628-6.343a1.68 1.68 0 0 1 1.279-1.224c.624-.13 1.27.104 1.663.606l4.597 5.853zm-3.18 3.56l-4.916.31a1.673 1.673 0 0 1-1.424-.638l-3.043-3.875-1.224 4.773c-.125.485-.46.884-.908 1.096a1.72 1.72 0 0 1-.14.06l-3.026 1.11-1.598.587 1.723 1.094 2.436 1.546c.252.159.45.382.585.638.114.218.183.46.192.714l.184 4.923 3.796-3.141a1.678 1.678 0 0 1 1.527-.32l4.738 1.346-1.813-4.58a1.677 1.677 0 0 1 .167-1.552z"/></g></g></svg>