<?xml version="1.0" encoding="utf-8"?>
<!-- Generator: Adobe Illustrator 24.1.0, SVG Export Plug-In . SVG Version: 6.00 Build 0)  -->
<svg version="1.1" id="Layer_5" xmlns="http://www.w3.org/2000/svg" xmlns:xlink="http://www.w3.org/1999/xlink" x="0px" y="0px"
	 viewBox="0 0 47.4 46.5" style="enable-background:new 0 0 47.4 46.5;" xml:space="preserve">
<style type="text/css">
	.st0{fill:#E00817;}
</style>
<g>
	<path class="st0" d="M36.5,41.8C19.7,41.8,6,28,6,11.2c0-0.1,0-0.1,0-0.2c0-0.9,0.4-1.7,1-2.3c0.6-0.6,1.5-0.9,2.3-0.9l5.9,0
		c1.8,0,3.3,1.5,3.3,3.4c0,1.9,0.3,3.8,0.9,5.6c0.4,1.1,0.1,2.4-0.7,3.3l-2.4,3.2c1.8,3.5,4.7,6.3,8.1,8l3.2-2.4
		c0.8-0.8,2.1-1.1,3.3-0.7c1.8,0.6,3.6,0.9,5.5,0.9c0,0,0.1,0,0.1,0h0c1.8,0,3.3,1.5,3.3,3.4v6C39.8,40.2,38.3,41.8,36.5,41.8z
		 M9.2,9.3C8.8,9.3,8.3,9.5,8,9.8c-0.3,0.3-0.5,0.7-0.6,1.2c0,0,0,0.1,0,0.1c0,16.1,13,29.1,29.1,29.1c1,0,1.8-0.8,1.8-1.8v-6
		c0-1-0.8-1.8-1.8-1.9c-2.1,0-4.1-0.3-6-0.9c-0.6-0.2-1.4,0-1.9,0.4l-4,3l-0.4-0.2c-4.1-2-7.5-5.3-9.5-9.3l-0.2-0.4l3-4
		c0.5-0.5,0.6-1.2,0.4-1.8c-0.6-2-0.9-4-0.9-6c0-1-0.8-1.8-1.8-1.8L9.2,9.3C9.3,9.3,9.2,9.3,9.2,9.3z"/>
</g>
<g>
	<path class="st0" d="M36.2,23.9h-1.5c0-6.8-5.5-12.4-12.4-12.4l0-1.5C30,10,36.2,16.3,36.2,23.9z"/>
</g>
<g>
	<path class="st0" d="M41.5,23.8H40c0-9.6-7.8-17.5-17.5-17.5l0-1.5C33,4.8,41.5,13.4,41.5,23.8z"/>
</g>
</svg>
