<svg id="Capa_1" data-name="Capa 1" xmlns="http://www.w3.org/2000/svg" viewBox="0 0 30 30"><defs><style>.cls-1{fill:#bf0811;}</style></defs><title>18</title><path class="cls-1" d="M21.39,21.84H11.52a3.32,3.32,0,0,1-3.27-3.33v-9a.36.36,0,0,1,.36-.36H21.39a.36.36,0,0,1,.36.36h0V21.48a.36.36,0,0,1-.36.36ZM8.92,9.85v8.66a2.65,2.65,0,0,0,2.6,2.66H21V9.85Z"/><rect class="cls-1" x="10.61" y="12.46" width="1.27" height="1.25"/><rect class="cls-1" x="13.09" y="12.46" width="1.27" height="1.25"/><rect class="cls-1" x="15.64" y="12.46" width="1.27" height="1.25"/><rect class="cls-1" x="18.12" y="12.46" width="1.27" height="1.25"/><rect class="cls-1" x="10.61" y="15" width="1.27" height="1.25"/><rect class="cls-1" x="13.09" y="15" width="1.27" height="1.25"/><rect class="cls-1" x="15.64" y="15" width="1.27" height="1.25"/><rect class="cls-1" x="18.12" y="15" width="1.27" height="1.25"/><rect class="cls-1" x="10.61" y="17.48" width="1.27" height="1.25"/><rect class="cls-1" x="13.09" y="17.48" width="1.27" height="1.25"/><rect class="cls-1" x="15.64" y="17.48" width="1.27" height="1.25"/><rect class="cls-1" x="18.12" y="17.48" width="1.27" height="1.25"/><rect class="cls-1" x="19.09" y="8.22" width="0.61" height="2.55"/><rect class="cls-1" x="10.31" y="8.16" width="0.61" height="2.55"/></svg>