<svg id="Capa_1" data-name="Capa 1" xmlns="http://www.w3.org/2000/svg" viewBox="0 0 34.61 39.32"><defs><style>.cls-1{fill:#e00817;}</style></defs><title>Vuelo</title><path class="cls-1" d="M29.94,0H7.82A4.68,4.68,0,0,0,3.14,4.68v2H.94a.94.94,0,0,0,0,1.87H3.13v6.14H.94a.94.94,0,1,0,0,1.87H3.13v6.14H.94a.94.94,0,0,0,0,1.87H3.13v6.14H.94a.94.94,0,0,0,0,1.87H3.13v2a4.68,4.68,0,0,0,4.68,4.68H29.93a4.68,4.68,0,0,0,4.68-4.68v-30A4.67,4.67,0,0,0,29.94,0Zm2.81,34.64a2.82,2.82,0,0,1-2.81,2.81H7.82A2.82,2.82,0,0,1,5,34.64v-2H7.2a.94.94,0,0,0,0-1.87H5V24.6H7.2a.94.94,0,0,0,0-1.87H5V16.59H7.2a.94.94,0,1,0,0-1.87H5V8.58H7.2a.94.94,0,1,0,0-1.87H5v-2A2.82,2.82,0,0,1,7.82,1.87H29.94a2.82,2.82,0,0,1,2.81,2.81Z"/><path class="cls-1" d="M18.87,19.39a4.54,4.54,0,1,0-4.54-4.54A4.54,4.54,0,0,0,18.87,19.39Zm0-7.22a2.67,2.67,0,1,1-2.67,2.67A2.67,2.67,0,0,1,18.87,12.17Z"/><path class="cls-1" d="M18.87,20.9a7,7,0,0,0-6.95,7.19.94.94,0,0,0,.94.94h12a.94.94,0,0,0,.94-.94A7,7,0,0,0,18.87,20.9Zm-5,6.25a5,5,0,0,1,10,0Z"/></svg>