<svg id="Layer_5" data-name="Layer 5" xmlns="http://www.w3.org/2000/svg" viewBox="0 0 47.4 46.5"><defs><style>.cls-1{fill:#e00a16;}</style></defs><path class="cls-1" d="M23.7,1.2A16.3,16.3,0,0,0,7.5,17.4c0,11.9,15,27,15.7,27.7l.5.2.5-.2c.6-.7,15.6-15.8,15.6-27.7A16.2,16.2,0,0,0,23.7,1.2Zm0,42.3C21,40.7,9,27.5,9,17.4a14.7,14.7,0,0,1,29.4,0C38.4,27.5,26.4,40.7,23.7,43.5Z"/><path class="cls-1" d="M36.9,17.4A13.2,13.2,0,1,0,23.7,30.6,13.2,13.2,0,0,0,36.9,17.4ZM23.7,29.1A11.8,11.8,0,1,1,35.4,17.4,11.7,11.7,0,0,1,23.7,29.1Z"/><path class="cls-1" d="M32.5,13H28.8V10.8a.8.8,0,0,0-.7-.8H19.3a.9.9,0,0,0-.8.8v5.8H14.9a.9.9,0,0,0-.8.8v5.1a.8.8,0,0,0,.8.7H32.5a.7.7,0,0,0,.7-.7V13.7A.7.7,0,0,0,32.5,13Zm-14,8.8H15.6V18.1h2.9Zm8.9-8.1v8.1H20V11.5h7.4Zm4.4,8.1h-3V14.4h3Z"/><path class="cls-1" d="M21.5,13H23v1.4H21.5Z"/><path class="cls-1" d="M24.4,13h1.5v1.4H24.4Z"/><path class="cls-1" d="M21.5,15.9H23v1.5H21.5Z"/><path class="cls-1" d="M24.4,15.9h1.5v1.5H24.4Z"/><path class="cls-1" d="M21.5,18.8H23v1.5H21.5Z"/><path class="cls-1" d="M24.4,18.8h1.5v1.5H24.4Z"/><path class="cls-1" d="M16.3,18.8h1.5v1.5H16.3Z"/><path class="cls-1" d="M29.6,18.8H31v1.5H29.6Z"/><path class="cls-1" d="M29.6,15.9H31v1.5H29.6Z"/></svg>