<?xml version="1.0" encoding="utf-8"?>
<!-- Generator: Adobe Illustrator 24.1.0, SVG Export Plug-In . SVG Version: 6.00 Build 0)  -->
<svg version="1.1" id="Layer_5" xmlns="http://www.w3.org/2000/svg" xmlns:xlink="http://www.w3.org/1999/xlink" x="0px" y="0px"
	 viewBox="0 0 47.4 46.5" style="enable-background:new 0 0 47.4 46.5;" xml:space="preserve">
<style type="text/css">
	.st0{fill:#E00A16;}
	.st1{fill:#E00919;}
</style>
<g>
	<path class="st0" d="M15.2,28.6c2.2-3.3,8.1-12.5,8.1-16.3c0-4.5-3.6-8.1-8.1-8.1c-4.5,0-8.1,3.6-8.1,8.1
		C7.1,16.1,13.1,25.3,15.2,28.6z M8.3,12.3c0.5-3.8,3.9-6.6,7.8-6.1c3.2,0.4,5.7,2.9,6.1,6.1c0,3.2-5.2,11.4-7,14.1
		C13.5,23.7,8.3,15.5,8.3,12.3z"/>
	<path class="st1" d="M15.2,28.9l-0.5-0.7C12.4,24.5,7,16,7,12.3c0-4.5,3.7-8.2,8.2-8.2c0,0,0,0,0,0c2.2,0,4.3,0.9,5.8,2.4
		c1.6,1.6,2.4,3.6,2.4,5.8c0,3.8-5.7,12.7-8.1,16.4L15.2,28.9z M15.2,4.4C15.2,4.4,15.2,4.4,15.2,4.4c-4.4,0-8,3.6-8,7.9
		c0,3.6,5.4,12.1,7.7,15.7l0.2,0.3c2-3.1,7.9-12.3,7.9-16c0-2.1-0.8-4.1-2.3-5.6C19.3,5.2,17.3,4.4,15.2,4.4z M15.2,26.7L15,26.3
		c-1.9-3-6.8-10.8-6.8-14l0,0c0.5-3.9,4-6.7,8-6.2c3.3,0.4,5.9,3,6.2,6.2c0,3.5-5.9,12.4-7,14.2L15.2,26.7z M8.4,12.3
		c0,3.1,5,11.1,6.8,13.8c1.1-1.7,6.8-10.5,6.8-13.8c-0.4-3.1-2.8-5.6-6-6C12.3,5.9,8.9,8.6,8.4,12.3z"/>
</g>
<g>
	<path class="st0" d="M19.1,12.3c0.3-2.1-1.1-4.1-3.2-4.5c-2.1-0.3-4.1,1.1-4.5,3.2c-0.1,0.4-0.1,0.8,0,1.2c0.3,2.1,2.3,3.6,4.5,3.2
		C17.5,15.3,18.8,14,19.1,12.3z M12.6,12.3c-0.1-1.5,1.1-2.7,2.6-2.8s2.7,1.1,2.8,2.6c0.1,1.5-1.1,2.7-2.6,2.8c-0.1,0-0.1,0-0.2,0
		C13.8,14.8,12.7,13.7,12.6,12.3z"/>
	<path class="st1" d="M15.2,15.7c-0.8,0-1.7-0.3-2.4-0.8c-0.9-0.6-1.5-1.6-1.6-2.6c-0.1-0.4-0.1-0.9,0-1.3c0.2-1.1,0.8-2,1.6-2.6
		c0.9-0.6,1.9-0.9,3-0.7c1.1,0.2,2,0.8,2.6,1.6c0.6,0.9,0.9,1.9,0.7,3l0,0c-0.3,1.7-1.6,3.1-3.4,3.4C15.7,15.7,15.5,15.7,15.2,15.7z
		 M15.2,7.9c-0.8,0-1.5,0.2-2.2,0.7c-0.8,0.6-1.3,1.5-1.5,2.4c-0.1,0.4-0.1,0.8,0,1.2c0.2,1,0.7,1.9,1.5,2.4
		c0.8,0.6,1.8,0.8,2.8,0.7c1.6-0.3,2.8-1.5,3.1-3.1l0,0c0.2-1-0.1-2-0.7-2.8c-0.6-0.8-1.5-1.3-2.4-1.5C15.6,7.9,15.4,7.9,15.2,7.9z
		 M15.3,15.1c0,0-0.1,0-0.1,0c-1.5-0.1-2.7-1.3-2.7-2.7l0,0c0-0.8,0.2-1.5,0.8-2c0.5-0.6,1.2-0.9,2-0.9c0.8,0,1.5,0.2,2,0.8
		c0.6,0.5,0.9,1.2,0.9,2c0.1,1.6-1.2,2.9-2.7,3C15.4,15.1,15.3,15.1,15.3,15.1z M15.3,9.7C15.3,9.7,15.2,9.7,15.3,9.7
		c-0.8,0-1.4,0.3-1.9,0.8s-0.7,1.1-0.7,1.8l0,0c0,1.3,1.1,2.4,2.5,2.5c0.1,0,0.1,0,0.2,0c1.4-0.1,2.5-1.2,2.5-2.6
		c0-0.7-0.3-1.3-0.8-1.8C16.6,9.9,15.9,9.7,15.3,9.7z"/>
</g>
<g>
	<path class="st0" d="M41.4,15.8l-6,6H33l-5-5.1h-4.8v1.2h4.3l5,5.1h3.4l5.5-5.5l1.5,1.4v1.8l-1.4,1.5v9.6l-1.9,1.9v2.7l1.4,1.4v1.1
		l-0.9,0.8l-3-3h-9.6L26.6,39l0.9,1l-1.1,1.1H25l-4.5-4.4h-7.6l-8.4-8.4V17.9h2.8v-1.2h-4v12.1l9.1,9.1h7.7l4.4,4.4h2.4l2.3-2.3
		L28,38.7l0.3-0.8h8.3l3.5,3.5l2.1-2v-2.1l-1.4-1.4v-1.7l1.8-1.9v-9.6l1.5-1.5v-2.7L41.4,15.8z"/>
	<path class="st1" d="M27,42.5h-2.5L20,38.1h-7.7l-9.2-9.2V16.6h4.3V18H4.6v10.2l8.3,8.3h7.6l4.5,4.4h1.3l1-1l-0.9-1l1-2.5h9.8
		l2.9,2.9l0.7-0.7v-1l-1.4-1.4v-2.8l1.9-1.9v-9.6l1.4-1.5V19l-1.3-1.3L36,23.1h-3.5l-5-5.1h-4.4v-1.5h5l5,5.1h2.3l6.1-6.1l2.8,2.9
		v2.8l-1.5,1.5v9.6l0,0L41,34.3v1.6l1.4,1.4v2.2l0,0l-2.2,2.1l-3.6-3.6h-8.1l-0.2,0.6l1.2,1.3L27,42.5z M24.6,42.1h2.3L29,40
		l-1.2-1.3l0.4-1h8.5l3.4,3.4l1.9-1.9v-2L40.6,36v-1.8l0,0l1.8-1.9v-9.6l1.5-1.5v-2.6L41.4,16l-5.9,5.9h-2.5l-5-5.1h-4.6v0.9h4.2
		l5,5.1h3.3l5.6-5.6l1.7,1.5v1.9l-1.4,1.5v9.6l-1.9,1.9v2.6l1.4,1.4V39l-1.1,0.9L40,39.8l-3-3h-9.4L26.8,39l0.9,1l-1.2,1.2h-1.5
		l-4.5-4.4h-7.6l-8.5-8.5V17.8h2.8v-0.9H3.4v11.9l9,9h7.7L24.6,42.1z"/>
</g>
</svg>
