<svg id="Layer_5" data-name="Layer 5" xmlns="http://www.w3.org/2000/svg" viewBox="0 0 47.4 46.5"><defs><style>.cls-1{fill:#e00a16;}</style></defs><path class="cls-1" d="M43.2,42.5V22.6H41.9V19.9H40.6V16H39.3V13.3H37.9V16H36.6v3.9H35.3V5.2l-4,.8V4H30V6.3l-1.4.2V2.7H27.3V6.8L26,7.1V4H24.7V7.3l-4,.8V12H8.7v1.3h1.4v8H9.4c-2.5,0-4.6,2.3-4.6,5.3a5.1,5.1,0,0,0,3.9,5.2v.9a2.7,2.7,0,0,0-1.9-.8,3.7,3.7,0,0,0-3.4,3.9,3.8,3.8,0,0,0,2.7,3.9v2.8H3.4v1.3H44.6V42.5Zm-29.1-.7a1.9,1.9,0,0,1,1.9-2,2.1,2.1,0,0,1,1.8,1l.2.4h1.3l.7.2.2-.7a3.2,3.2,0,0,1,3.1-2.3,3.3,3.3,0,0,1,2.9,1.7l.5.8.6-.6a2,2,0,0,1,2.7,0l.6.6.4-.8a3.4,3.4,0,0,1,2.9-1.7,3.2,3.2,0,0,1,3.2,2.3l.2.6.6-.2a3.2,3.2,0,0,1,3.3,1.3h-27a1.7,1.7,0,0,1-.1-.7ZM41.9,23.9V41.2a3.8,3.8,0,0,0-1.3-.9V25.2H31.3V38l-1,.9H30V23.9Zm-8,13.3a3,3,0,0,0-1.3.2V26.6h2.7V37.4A3.4,3.4,0,0,0,33.9,37.2Zm2.7-10.6h2.7V39.9H38.1A4.3,4.3,0,0,0,36.6,38Zm-5.3-4V21.3h9.3v1.3Zm6.6-5.3h1.4v2.6H37.9Zm-4-10.5V19.9H30v2.7H28.6V38.5a4.7,4.7,0,0,0-1.6.4,4.7,4.7,0,0,0-3.7-1.7,3,3,0,0,0-1.3.2V9.2Zm-18.5,17a3.5,3.5,0,0,0-2-.5H13a3.8,3.8,0,0,0-1.6-1.5V13.3h9.3V38a4.9,4.9,0,0,0-1.6,1.9h-.4A3.4,3.4,0,0,0,16,38.5a3.3,3.3,0,0,0-3.3,3.3c0,.2.1.5.1.7H10.1V40.1l4-4.7V33.8A5.1,5.1,0,0,0,18,28.6a5.4,5.4,0,0,0-2.4-4.7m-1.5,2.7a6.5,6.5,0,0,0-.4-2,3.8,3.8,0,0,1,3,4c0,2.1-1.5,3.9-3.3,3.9a3.2,3.2,0,0,1-2.2-1A5.4,5.4,0,0,0,14.1,26.6Zm-4,5.7a4.6,4.6,0,0,0,2.6,1.5v1.1L10.1,38Zm-4-5.7c0-2.2,1.5-4,3.3-4s3.3,1.8,3.3,4a3.9,3.9,0,0,1-2.6,3.9V25.9H8.7v4.6A3.9,3.9,0,0,1,6.1,26.6ZM4.8,35.8c0-1.4.9-2.6,2-2.6s1.9,1.2,1.9,2.6-.8,2.7-1.9,2.7S4.8,37.3,4.8,35.8Zm2.6,3.9A2.1,2.1,0,0,0,8.7,39v3.5H7.4Z"/></svg>