<?xml version="1.0" encoding="utf-8"?>
<!-- Generator: Adobe Illustrator 24.0.3, SVG Export Plug-In . SVG Version: 6.00 Build 0)  -->
<svg version="1.1" id="Capa_1" xmlns="http://www.w3.org/2000/svg" xmlns:xlink="http://www.w3.org/1999/xlink" x="0px" y="0px"
	 viewBox="0 0 30.1 23.8" style="enable-background:new 0 0 30.1 23.8;" xml:space="preserve">
<style type="text/css">
	.st0{fill:#DD0C1A;}
	.st1{fill:#DD0C1A;stroke:#FFFFFF;stroke-width:0.75;stroke-linecap:round;stroke-linejoin:round;stroke-miterlimit:10;}
</style>
<g>
	<path class="st1" d="M0.4,14.8c0.2-0.2,0.3-0.5,0.5-0.7c2.3-2.3,4.6-4.6,6.8-6.9C7.8,7.2,7.9,7.1,8,7c0.3-0.3,0.7-0.5,1.2-0.3
		c0.4,0.2,0.7,0.5,0.7,1c0,0.9,0,1.8,0,2.7c0,0.1,0,0.2,0,0.4c0.2,0,0.3,0,0.4,0c3.6,0,7.3,0,10.9,0c0.9,0,1.2,0.4,1.2,1.2
		c0,0.5,0,0.9,0,1.4c1.6-1.6,3.2-3.2,4.7-4.7c-1.5-1.5-3.1-3.1-4.7-4.7c0,0,0,0.1,0,0.2c0,0.4,0,0.8,0,1.2c0,0.8-0.4,1.2-1.2,1.2
		c-0.7,0-1.5,0-2.2,0c-1.9,0-3.9,0-5.8,0c-0.8,0-1.3-0.4-1.3-1c0-0.6,0.5-1,1.3-1c2.3,0,4.5,0,6.8,0c0.3,0,0.3-0.1,0.3-0.3
		c0-0.9,0-1.8,0-2.7c0-0.5,0.2-0.9,0.6-1.1c0.5-0.2,0.9-0.1,1.2,0.3c2.4,2.4,4.8,4.8,7.2,7.2c0.5,0.5,0.5,1.1,0,1.7
		c-2.4,2.4-4.8,4.8-7.2,7.2c-0.4,0.4-0.8,0.5-1.2,0.3c-0.5-0.2-0.6-0.6-0.6-1.1c0-0.9,0-1.8,0-2.7c0-0.3-0.1-0.3-0.3-0.3
		c-3.7,0-7.3,0-11,0c-0.9,0-1.2-0.4-1.2-1.2c0-0.5,0-0.9,0-1.3c-1.6,1.6-3.1,3.2-4.7,4.7c1.5,1.5,3.1,3.1,4.7,4.7c0-0.1,0-0.1,0-0.2
		c0-0.4,0-0.9,0-1.3c0-0.7,0.4-1.1,1.1-1.1c2.8,0,5.6,0,8.3,0c0.6,0,1.1,0.5,1.1,1c0,0.6-0.5,1-1.1,1c-2.3,0-4.6,0-6.9,0
		c-0.3,0-0.4,0.1-0.4,0.4c0,0.9,0,1.7,0,2.6c0,0.5-0.1,1-0.6,1.2c-0.5,0.2-0.9,0-1.3-0.4c-2.4-2.4-4.7-4.7-7.1-7.1
		c-0.2-0.2-0.3-0.4-0.4-0.6C0.4,15.1,0.4,15,0.4,14.8z"/>
</g>
</svg>
