<svg id="Capa_1" data-name="Capa 1" xmlns="http://www.w3.org/2000/svg" viewBox="0 0 40.75 40.7"><defs><style>.cls-1{fill:#fff;}</style></defs><title>EN_Boton3_Rojo</title><path class="cls-1" d="M0,25.63a.56.56,0,0,0,.07-.18,2.57,2.57,0,0,1,3.28-1.84Q6.2,24.44,9,25.29a.42.42,0,0,0,.6-.22A20.19,20.19,0,0,1,13,21c.51-.48,1-1,1.54-1.52-.14-.1-.24-.2-.35-.28L1.58,10.13A2.74,2.74,0,0,1,.3,7.6a2.64,2.64,0,0,1,3-2.44c2,.28,3.92.62,5.89.94l7,1.15A.74.74,0,0,0,16.87,7q1.69-1.74,3.43-3.44a2.38,2.38,0,0,1,4,1,2.28,2.28,0,0,1-.61,2.31c-.42.44-.87.85-1.37,1.34,1,.16,1.89.31,2.77.43a.63.63,0,0,0,.43-.21C27.26,6.75,29,5,30.72,3.31a12.33,12.33,0,0,1,5-3A5.1,5.1,0,0,1,38.1.06a3,3,0,0,1,2.65,3.05,7.91,7.91,0,0,1-1.23,4.14,14.72,14.72,0,0,1-2.44,3.17C35.5,12,33.92,13.6,32.32,15.18a.68.68,0,0,0-.24.69c.15.81.27,1.62.42,2.51.44-.44.85-.83,1.24-1.23a2.35,2.35,0,0,1,1.92-.78,2.38,2.38,0,0,1,1.56,4c-.76.79-1.55,1.56-2.33,2.34-.38.38-.75.78-1.16,1.15a.69.69,0,0,0-.23.69c.45,2.66.88,5.31,1.31,8,.26,1.62.54,3.24.78,4.87a2.65,2.65,0,0,1-2,3,2.68,2.68,0,0,1-2.86-1.1c-1.44-2-2.86-4-4.3-5.93-1.62-2.25-3.25-4.49-4.88-6.74-.07-.1-.16-.2-.28-.36a27.93,27.93,0,0,1-5.9,5.06c.54,1.81,1.06,3.58,1.58,5.34a4.06,4.06,0,0,1,.27,2.1,2.59,2.59,0,0,1-2.4,1.94,2.69,2.69,0,0,1-2.39-1.28c-1-1.51-2.07-3-3.09-4.49a.37.37,0,0,0-.55-.16c-.95.43-1.93.82-2.89,1.23a.82.82,0,0,1-1.13-1.12l1.19-2.82.17-.42L3.05,29.52c-.45-.32-.9-.65-1.37-.94A3.4,3.4,0,0,1,0,26.51Zm6.92,8.12.08.06.21-.08c1.94-.95,3.9-1.86,5.81-2.87a19.28,19.28,0,0,0,4.72-3.35q8.91-8.9,17.81-17.81c.44-.44.87-.9,1.28-1.37A.86.86,0,0,0,37,7.88a3.81,3.81,0,0,0-3.35-4.11A1.62,1.62,0,0,0,32,4.29a4.12,4.12,0,0,1-.37.35L13.08,23.18a10.13,10.13,0,0,0-.69.78,34.24,34.24,0,0,0-3.93,6.48C7.92,31.53,7.43,32.64,6.92,33.75ZM23.77,10.1,22.4,9.87l-13-2.11-6.24-1A1.06,1.06,0,0,0,1.93,8.08a1.65,1.65,0,0,0,.59.75Q8.22,13,13.92,17.1l1.66,1.2Zm-1.3,15.08.08.13,4.28,5.9L32,38.36a1.09,1.09,0,0,0,2-.81c-.12-.8-.25-1.6-.38-2.4q-1.29-7.89-2.57-15.77c-.14-.8-.27-1.61-.4-2.38ZM10.6,34l.2.31q1.48,2.16,3,4.31a1,1,0,0,0,1.35.47,1,1,0,0,0,.45-1.33q-.75-2.58-1.52-5.14a2.6,2.6,0,0,0-.13-.36ZM6.8,30.14l1.73-3.3a.51.51,0,0,0-.13-.08L2.8,25.12a.89.89,0,0,0-.43,0,.91.91,0,0,0-.75.78,1,1,0,0,0,.46,1L6.59,30ZM38.39,6a5.14,5.14,0,0,0,.68-3.33,1.23,1.23,0,0,0-1-1,4.73,4.73,0,0,0-3.25.67A5.52,5.52,0,0,1,38.39,6ZM33.13,22.26c1-1,2-2,2.89-2.9a.79.79,0,0,0,.06-1.17.8.8,0,0,0-1.19.07c-.63.61-1.25,1.22-1.85,1.86a.63.63,0,0,0-.16.47C32.93,21.12,33,21.64,33.13,22.26ZM18.49,7.62c.64.1,1.17.2,1.71.27a.49.49,0,0,0,.36-.09c.69-.67,1.38-1.35,2-2a.77.77,0,0,0,0-1.08.76.76,0,0,0-1.07,0c-.46.42-.89.88-1.33,1.31Z"/><path class="cls-1" d="M22,19.62c-.22-.18-.53-.31-.63-.53a1,1,0,0,1,.06-.8c.77-.84,1.58-1.64,2.4-2.42a.74.74,0,0,1,1.07.1.76.76,0,0,1,0,1.08c-.57.59-1.16,1.16-1.74,1.74a4.83,4.83,0,0,1-.51.5A4.27,4.27,0,0,1,22,19.62Z"/><path class="cls-1" d="M28.85,11.13c.2.16.51.3.6.52a.92.92,0,0,1-.08.8c-.75.83-1.56,1.62-2.37,2.4a.78.78,0,0,1-1.09-1.1c.78-.81,1.58-1.6,2.39-2.38A1.81,1.81,0,0,1,28.85,11.13Z"/><path class="cls-1" d="M19.74,20.2a.8.8,0,0,1,.81.76.79.79,0,0,1-.79.82.79.79,0,0,1,0-1.58Z"/></svg>