<?xml version="1.0" encoding="utf-8"?>
<!-- Generator: Adobe Illustrator 24.0.2, SVG Export Plug-In . SVG Version: 6.00 Build 0)  -->
<svg version="1.1" id="Capa_1" xmlns="http://www.w3.org/2000/svg" xmlns:xlink="http://www.w3.org/1999/xlink" x="0px" y="0px"
	 viewBox="0 0 50.9 40.7" style="enable-background:new 0 0 50.9 40.7;" xml:space="preserve">
<style type="text/css">
	.st0{fill:#FFFFFF;}
</style>
<title>EN_Boton5_Rojo</title>
<g>
	<path class="st0" d="M16.5,20c2.7,0,4.8-2.1,4.8-4.8c0-2.7-2.1-4.8-4.8-4.8s-4.8,2.1-4.8,4.8C11.7,17.8,13.9,20,16.5,20z
		 M16.5,12.2c1.6,0,2.9,1.3,2.9,2.9c0,1.6-1.3,2.9-2.9,2.9c-1.6,0-2.9-1.3-2.9-2.9C13.6,13.6,14.9,12.2,16.5,12.2z"/>
	<path class="st0" d="M16.5,21.7c-2,0-3.8,0.8-5.2,2.2c-1.4,1.4-2.2,3.4-2.2,5.5c0,0.5,0.4,0.9,0.9,0.9h12.9c0.5,0,0.9-0.4,0.9-0.9
		c0-2.1-0.8-4-2.2-5.5C20.3,22.5,18.5,21.7,16.5,21.7z M11,28.5c0.2-1.2,0.7-2.3,1.6-3.2c1-1,2.4-1.6,3.9-1.6s2.9,0.6,3.9,1.6
		c0.9,0.9,1.4,2,1.6,3.2H11z"/>
	<path class="st0" d="M43.1,3.9H7.8C5.3,3.9,3.2,6,3.2,8.6v23.6c0,2.6,2.1,4.6,4.6,4.6h35.3c2.6,0,4.6-2.1,4.6-4.6V8.6
		C47.8,6,45.7,3.9,43.1,3.9z M45.9,32.1c0,1.5-1.2,2.8-2.8,2.8H7.8c-1.5,0-2.8-1.2-2.8-2.8V8.6C5,7,6.3,5.8,7.8,5.8h35.3
		c1.5,0,2.8,1.2,2.8,2.8V32.1z"/>
	<path class="st0" d="M40.8,19.4H30c-0.5,0-0.9,0.4-0.9,0.9s0.4,0.9,0.9,0.9h10.8c0.5,0,0.9-0.4,0.9-0.9S41.3,19.4,40.8,19.4z"/>
	<path class="st0" d="M40.8,25.4H30c-0.5,0-0.9,0.4-0.9,0.9c0,0.5,0.4,0.9,0.9,0.9h10.8c0.5,0,0.9-0.4,0.9-0.9
		C41.8,25.8,41.3,25.4,40.8,25.4z"/>
	<path class="st0" d="M40.8,13.5H30c-0.5,0-0.9,0.4-0.9,0.9s0.4,0.9,0.9,0.9h10.8c0.5,0,0.9-0.4,0.9-0.9S41.3,13.5,40.8,13.5z"/>
</g>
</svg>
