<svg id="Capa_1" data-name="Capa 1" xmlns="http://www.w3.org/2000/svg" xmlns:xlink="http://www.w3.org/1999/xlink" viewBox="0 0 338.75 133.02"><defs><style>.cls-1,.cls-7{fill:none;}.cls-2{font-size:47.33px;font-family:CenturyGothic-Bold, Century Gothic;font-weight:700;letter-spacing:0.1em;}.cls-2,.cls-3{fill:#324341;}.cls-3{font-size:15.6px;font-family:CenturyGothic, Century Gothic;}.cls-4{clip-path:url(#clip-path);}.cls-5{fill:#e00817;}.cls-6{opacity:0.36;}.cls-7{stroke:#fff;stroke-miterlimit:10;stroke-width:0.25px;}.cls-8{fill:#fff;}</style><clipPath id="clip-path"><path class="cls-1" d="M40.78,21.8A13.77,13.77,0,0,1,47.71,20h65.37A13.91,13.91,0,0,1,127,33.86V99.23a13.91,13.91,0,0,1-13.91,13.91H47.71A13.91,13.91,0,0,1,33.8,99.23V33.86a13.9,13.9,0,0,1,7-12.06"/></clipPath></defs><title>Mesa de trabajo 15</title><text class="cls-2" transform="translate(137.76 67.43)">SAR</text><text class="cls-3" transform="translate(137.9 88.27)">SISTEMA AUTOMÁTICO<tspan x="0" y="15.61">DE REVISADOS</tspan></text><g class="cls-4"><path class="cls-5" d="M40.78,21.8A13.77,13.77,0,0,1,47.71,20h65.37A13.91,13.91,0,0,1,127,33.86V99.23a13.91,13.91,0,0,1-13.91,13.91H47.71A13.91,13.91,0,0,1,33.8,99.23V33.86a13.9,13.9,0,0,1,7-12.06"/><g class="cls-6"><polyline class="cls-7" points="62.25 13.07 64.9 31.65 62.58 31.98 60.87 19.92 55.66 20.66 57.23 31.64 53.93 32.11 52.05 18.9 57.77 18.09 57.37 15.28 44.6 17.09 46.99 33.86 49.57 33.49 48.75 27.73 51.23 27.38 53.04 40.07 50.68 40.41 50.07 36.12 40.56 37.47"/><polyline class="cls-7" points="61.3 34.74 68.14 33.77 67.09 26.39"/><polyline class="cls-7" points="34.37 52.69 36.15 65.2 32.75 65.68 31.74 58.61 27.22 59.26 27.57 61.77 20.3 62.81"/><polyline class="cls-7" points="71.79 38.07 77.71 37.23 77.95 38.95 73.94 39.52 74.27 41.81 81.17 40.83 81.87 45.72 89.15 44.68"/><polyline class="cls-7" points="88.42 42.4 83.92 43.04 83.21 38.06 79.46 38.59 78.94 34.94 73.14 35.77 72.26 29.6"/><polyline class="cls-7" points="38.8 40.15 47.44 38.92 48.53 46.58 44.15 47.2 43.41 41.95 40.46 42.37 41.93 52.71 36.59 53.47 38.67 68.11 30.09 69.33"/><polyline class="cls-7" points="34.05 64.06 32.41 52.56 39.57 51.54 39.25 49.26 30.71 50.47 30.31 47.64 38.25 46.51 37.87 43.83 37.55 41.65"/><polyline class="cls-7" points="31.59 71.28 41.36 69.89 42.73 79.55 44.1 79.35 42.46 67.8 40.4 68.1 39.94 64.83 44.79 64.14 45.89 71.87 50.53 71.21 51.83 80.36 56.13 79.75 56.63 83.25"/><polyline class="cls-7" points="43.7 66.33 44.98 75.37 48.73 74.84 50 83.79"/><polyline class="cls-7" points="46.03 64.53 46.7 69.24 51.89 68.5 53.08 76.84 58.68 76.05 59.23 79.9"/><line class="cls-7" x1="39.63" y1="56.64" x2="40.65" y2="63.85"/><polyline class="cls-7" points="70.03 44.18 78.76 42.94 79.98 51.52 67.71 53.26 68.37 57.92 64.58 58.45 65.27 63.25 56.83 64.45 57.26 67.47 61.92 66.8 62.9 73.7 60.12 74.09 59.52 69.87 54.54 70.57 55.04 74.1"/><polyline class="cls-7" points="59.53 65.71 67.55 64.57 67.08 61.31 72.35 60.56 72.08 58.7 70.17 58.97 69.63 55.17 76.63 54.17"/><polyline class="cls-7" points="76.04 49.68 75.45 45.56 70.32 46.29"/><line class="cls-7" x1="70.51" y1="49.09" x2="73.99" y2="48.59"/><polyline class="cls-7" points="54.13 35.24 58.75 34.58 58.34 31.67 60.49 31.36"/></g><g class="cls-6"><polyline class="cls-7" points="105.24 52.7 107.89 71.28 105.57 71.61 103.86 59.55 98.65 60.29 100.22 71.28 96.92 71.75 95.04 58.53 100.76 57.72 100.36 54.91 87.59 56.73 89.97 73.49 92.56 73.13 91.74 67.37 94.22 67.02 96.03 79.71 93.67 80.04 93.06 75.75 83.55 77.1"/><polyline class="cls-7" points="104.29 74.38 111.13 73.4 110.08 66.03"/><polyline class="cls-7" points="106.95 76.37 114.05 75.36 112.95 67.64"/><polyline class="cls-7" points="77.36 92.33 79.14 104.83 75.74 105.32 74.73 98.25 70.2 98.89 70.56 101.41 63.29 102.44"/><polyline class="cls-7" points="114.78 77.71 120.69 76.86 120.94 78.58 116.93 79.15 117.26 81.44 124.16 80.46 124.86 85.36 132.14 84.32"/><polyline class="cls-7" points="131.41 82.04 126.91 82.68 126.2 77.69 122.45 78.23 121.93 74.58 116.13 75.4 115.25 69.23"/><polyline class="cls-7" points="81.79 79.78 90.43 78.55 91.52 86.21 87.14 86.84 86.39 81.58 83.45 82 84.92 92.35 79.57 93.11 81.66 107.75 73.08 108.97"/><polyline class="cls-7" points="77.04 103.7 75.4 92.2 82.56 91.18 82.24 88.89 73.7 90.11 73.3 87.28 81.23 86.15 80.85 83.47 80.54 81.29"/><polyline class="cls-7" points="74.57 110.91 84.35 109.52 85.72 119.18 87.09 118.99 85.44 107.44 83.39 107.73 82.92 104.47 87.78 103.78 88.88 111.51 93.52 110.85 94.82 120 99.12 119.38 99.62 122.88"/><polyline class="cls-7" points="86.68 105.96 87.97 115.01 91.72 114.47 92.99 123.42"/><polyline class="cls-7" points="89.02 104.17 89.69 108.88 94.88 108.14 96.06 116.48 101.67 115.68 102.21 119.53"/><line class="cls-7" x1="82.61" y1="96.27" x2="83.64" y2="103.49"/><polyline class="cls-7" points="113.02 83.81 121.74 82.57 122.97 91.15 110.7 92.9 111.36 97.55 107.57 98.09 108.26 102.89 99.82 104.09 100.25 107.1 104.91 106.44 105.89 113.33 103.11 113.73 102.51 109.5 97.53 110.21 98.03 113.74"/><polyline class="cls-7" points="102.52 105.35 110.53 104.2 110.07 100.94 115.34 100.19 115.07 98.33 113.16 98.6 112.62 94.8 119.62 93.81"/><polyline class="cls-7" points="119.03 89.32 118.44 85.2 113.31 85.93"/><line class="cls-7" x1="113.5" y1="88.72" x2="116.98" y2="88.23"/><polyline class="cls-7" points="97.12 74.87 101.74 74.21 101.32 71.31 103.48 71"/></g><path class="cls-5" d="M74.05,35.27l9-13.14,12.14,7.92L103,25.92l7.34,11.93a43.54,43.54,0,0,0-2.29,4.59c0,.46-.14,5.36-.14,5.36l7.48,4.74h6.43L129.19,65,55,114.44,48.41,103l2.3-4.59v-6L43.36,87l-6.43.92-5-11.5Z"/><path class="cls-8" d="M132.28,64,56.46,116,46.41,101.37l1-1a7.35,7.35,0,0,0-8.2-12L37.94,89,27.88,74.37l75.83-52.16,10.05,14.63-1,1a7.36,7.36,0,0,0-.32,10.4l0,.05a7.1,7.1,0,0,0,8.48,1.65l1.3-.62ZM57.33,111.3l70.24-48.23L121,53.52a10.4,10.4,0,0,1-11.09-3,10.57,10.57,0,0,1-2.9-7.65,10.82,10.82,0,0,1,2.37-6.43l-6.56-9.55L32.58,75.25l6.55,9.53a10.72,10.72,0,0,1,11.09,2.86,10.52,10.52,0,0,1,2.92,7.68,10.69,10.69,0,0,1-2.37,6.43Z"/><path class="cls-8" d="M31.28,76.3l-2.13-2.61L85,19.72l14.5,9.5ZM85.36,24,46.25,61.85,93.4,29.3Z"/><path class="cls-1" d="M73.93,64.7l-15.1,1a.75.75,0,0,0-.62.37.78.78,0,0,0,.36,1.14l10.9,4.63Z"/><path class="cls-1" d="M83.45,59.49c.33-1.35.21-2.47-.4-2.85-.78-.49-2,.28-2.75.88a3.9,3.9,0,0,1,1.83.57A3.86,3.86,0,0,1,83.45,59.49Z"/><path class="cls-1" d="M79.76,68.35,75.3,75.46l8.92,7.8a.78.78,0,0,0,1.18-.17.8.8,0,0,0,.07-.72Z"/><path class="cls-1" d="M83.79,68.4a.57.57,0,0,0-.79.18l-1.16,1.85.53,1.31L84,69.19A.57.57,0,0,0,83.79,68.4Z"/><path class="cls-8" d="M84.09,67.91a1.16,1.16,0,0,0-1.58.36l-1.31,2.1L82.26,73l2.2-3.5A1.15,1.15,0,0,0,84.09,67.91ZM84,69.19l-1.6,2.55-.53-1.31L83,68.58a.57.57,0,1,1,1,.61Z"/><path class="cls-8" d="M72.8,62.18A1.14,1.14,0,1,0,70.86,61l-2.19,3.49,2.82-.18Zm-3,1.64,1.59-2.55a.57.57,0,0,1,.79-.18.58.58,0,0,1,.19.79l-1.16,1.85Z"/><path class="cls-1" d="M73.93,64.7l-15.1,1a.75.75,0,0,0-.62.37.78.78,0,0,0,.36,1.14l10.9,4.63Z"/><path class="cls-1" d="M72.8,62.18A1.14,1.14,0,1,0,70.86,61l-2.19,3.49,2.82-.18Z"/><path class="cls-1" d="M84.46,69.49a1.15,1.15,0,0,0-1.95-1.22l-1.31,2.1L82.26,73Z"/><path class="cls-1" d="M83.45,59.49c.33-1.35.21-2.47-.4-2.85-.78-.49-2,.28-2.75.88a3.9,3.9,0,0,1,1.83.57A3.86,3.86,0,0,1,83.45,59.49Z"/><path class="cls-1" d="M79.76,68.35,75.3,75.46l8.92,7.8a.78.78,0,0,0,1.18-.17.8.8,0,0,0,.07-.72Z"/><path class="cls-1" d="M81.52,59.06a3,3,0,0,0-2.47-.25c-.67.85,0,0-10.55,16.71a14.39,14.39,0,0,0-1.33,3,41.87,41.87,0,0,0-1.35,5.57,43.54,43.54,0,0,0,4.34-3.57A14.45,14.45,0,0,0,72.38,78c10.48-16.76,10-15.8,10.45-16.78A3,3,0,0,0,81.52,59.06Z"/><path class="cls-8" d="M86.53,81.94,82.91,73l2-3.24A1.72,1.72,0,0,0,82,68l-.72,1.15-.8-2c2.59-4.18,2.9-4.52,3.43-5.65h0c1.21-2.63,1.1-5-.29-5.85s-3.54.06-5.38,2.29c-.79,1-1,1.41-3.59,5.55l-2.11.14.72-1.15a1.72,1.72,0,0,0-2.92-1.83l-2,3.25-9.59.61a1.94,1.94,0,0,0-.63,3.71l10.74,4.56-1.33,2.12a14.42,14.42,0,0,0-1.3,2.84l-4.58-.28a1.85,1.85,0,0,0-.8,3.57l4.08,1.63c-.31,1.5-.45,2.56-.46,2.61a.57.57,0,0,0,.26.56.56.56,0,0,0,.62,0c.05,0,.94-.62,2.15-1.54l3.24,3A1.86,1.86,0,0,0,73.61,85l-2.25-4a14.39,14.39,0,0,0,2-2.41l1.32-2.11,8.78,7.67a1.93,1.93,0,0,0,2.91-.42A2,2,0,0,0,86.53,81.94Zm-4-13.67a1.15,1.15,0,0,1,1.95,1.22L82.26,73,81.2,70.37Zm.54-11.63c.61.38.73,1.5.4,2.85a3.86,3.86,0,0,0-1.32-1.4,3.9,3.9,0,0,0-1.83-.57C81,56.92,82.27,56.15,83.05,56.64ZM70.86,61a1.14,1.14,0,1,1,1.94,1.21l-1.31,2.1-2.82.18ZM58.57,67.18A.78.78,0,0,1,58.21,66a.75.75,0,0,1,.62-.37l15.1-1-4.46,7.11Zm7,15.12-4.47-1.79a1.28,1.28,0,0,1,.55-2.46l5,.3h.06a37.54,37.54,0,0,0-1,4Zm7.58,2.94a1.29,1.29,0,0,1,0,1.3,1.27,1.27,0,0,1-1.94.27l-3.56-3.24,0,0c.94-.74,2-1.64,3-2.58l.12,0ZM72.38,78a14.45,14.45,0,0,1-2.22,2.58,43.54,43.54,0,0,1-4.34,3.57,41.87,41.87,0,0,1,1.35-5.57,14.39,14.39,0,0,1,1.33-3C79,58.78,78.38,59.66,79.05,58.81a2.81,2.81,0,0,1,3.78,2.37C82.35,62.16,82.86,61.2,72.38,78Zm13,5.13a.78.78,0,0,1-1.18.17l-8.92-7.8,4.46-7.11,5.71,14A.8.8,0,0,1,85.4,83.09Z"/><path class="cls-8" d="M66.57,78.35l-5-.3a1.28,1.28,0,0,0-.55,2.46l4.47,1.79h.06a37.54,37.54,0,0,1,1-4Zm-1.4,3.19L61.27,80a.7.7,0,0,1-.33-1,.68.68,0,0,1,.64-.33l4.29.26C65.62,79.69,65.39,80.58,65.17,81.54Z"/><path class="cls-8" d="M70.56,80.94c-1,.94-2.08,1.84-3,2.58l0,0,3.56,3.24a1.27,1.27,0,0,0,1.94-.27,1.29,1.29,0,0,0,0-1.3l-2.43-4.33Zm2,5.32a.7.7,0,0,1-1.07.14l-3.1-2.83c.76-.61,1.46-1.21,2.09-1.78l2.1,3.75A.69.69,0,0,1,72.59,86.26Z"/><rect class="cls-8" x="91.37" y="33.87" width="1.38" height="2.75" transform="translate(-3.7 58.66) rotate(-34.69)"/><path class="cls-8" d="M111.91,65.14l-3.27-4.72,1.13-.79,3.28,4.73Zm-6.54-9.45L102.09,51l1.13-.78,3.28,4.72Zm-6.55-9.46L95.55,41.5l1.13-.78L100,45.45Z"/><rect class="cls-8" x="115.85" y="69.24" width="1.38" height="2.75" transform="translate(-19.47 78.89) rotate(-34.7)"/></g></svg>