<svg id="Capa_1" data-name="Capa 1" xmlns="http://www.w3.org/2000/svg" viewBox="0 0 30 30"><defs><style>.cls-1{fill:#606060;}</style></defs><title>3</title><path class="cls-1" d="M19.34,10.64H16.83V6.27h.35a.35.35,0,0,0,.35-.35V4.47a.35.35,0,0,0-.35-.36H12.82a.35.35,0,0,0-.35.36V5.92a.35.35,0,0,0,.35.35h.35v4.37H10.66a1.1,1.1,0,0,0-1.1,1.1V23.33a1.1,1.1,0,0,0,1.1,1.1h0v1.05a.41.41,0,0,0,.35.41h1.46a.41.41,0,0,0,.35-.41V24.43h4.36v1.05a.41.41,0,0,0,.35.41H19a.41.41,0,0,0,.35-.41V24.43a1.1,1.1,0,0,0,1.1-1.1h0V11.74a1.1,1.1,0,0,0-1.1-1.1ZM13.17,4.82h3.66v.75H13.17Zm.75,1.45h2.16v4.37H13.92Zm-1.8,18.86h-.76v-.7h.76Zm6.52,0h-.76v-.7h.76Zm1.05-1.8a.35.35,0,0,1-.35.35H10.66a.41.41,0,0,1-.4-.35V11.74a.41.41,0,0,1,.4-.35h8.68a.35.35,0,0,1,.35.35h0Z"/><path class="cls-1" d="M14.62,12.79h.76v9.43h-.76Z"/><path class="cls-1" d="M12.12,12.79h.7v9.43h-.7Z"/><path class="cls-1" d="M17.18,12.79h.7v9.43h-.7Z"/></svg>