<svg id="Capa_1" data-name="Capa 1" xmlns="http://www.w3.org/2000/svg" viewBox="0 0 30 30"><defs><style>.cls-1{fill:#606060;}</style></defs><title>15</title><path class="cls-1" d="M10.53,21a1.77,1.77,0,0,1-1.77-1.77V11.91a.34.34,0,0,1,.34-.33H24.22a.33.33,0,0,1,.33.33h0v8.76c0,.1,0,.19-.09.24l-.24.1ZM9.38,12.25v6.94a1.16,1.16,0,0,0,1.15,1.15h13.4V12.2Z"/><path class="cls-1" d="M16.66,19.19a3.09,3.09,0,0,1-2.06-.86,2.94,2.94,0,0,1-.81-2.06,2.86,2.86,0,0,1,2.87-2.87h0a2.87,2.87,0,0,1,2.87,2.87h0A2.93,2.93,0,0,1,16.66,19.19Zm0-5.36h0a2.44,2.44,0,0,0-2.44,2.44h0A2.28,2.28,0,0,0,14.93,18a2.35,2.35,0,0,0,1.73.72h0a2.44,2.44,0,0,0,2.44-2.44h0A2.44,2.44,0,0,0,16.66,13.83Z"/><path class="cls-1" d="M16.42,18.71v-.57a1.56,1.56,0,0,1-.86-.29l.14-.38a1.39,1.39,0,0,0,.81.28.61.61,0,0,0,.67-.57h0c0-.34-.19-.53-.62-.67s-1-.53-1-1a1,1,0,0,1,.87-.95V14h.33v.58a1.49,1.49,0,0,1,.77.19l-.15.38a1.6,1.6,0,0,0-.71-.19c-.44,0-.63.24-.63.48s.24.48.72.67a1.21,1.21,0,0,1,.91,1.05,1,1,0,0,1-.91,1v.62Z"/><path class="cls-1" d="M6.85,13.21l-.29.09-.14-.19A5.46,5.46,0,0,1,11.82,9a5.61,5.61,0,0,1,5,2.92l-.33.2a5.32,5.32,0,0,0-4.65-2.73A5.06,5.06,0,0,0,6.85,13.21Z"/><path class="cls-1" d="M6.46,13.73H6.37l-.1-.14-.81-2.06c0-.09,0-.24.14-.29a.25.25,0,0,1,.24.15l.72,1.86,1.67-.67a.24.24,0,0,1,.24.15.19.19,0,0,1-.09.24l-1.87.76Z"/></svg>