<svg id="Capa_1" data-name="Capa 1" xmlns="http://www.w3.org/2000/svg" viewBox="0 0 39.27 37.5"><defs><style>.cls-1{opacity:0.95;}.cls-2{fill:#fff;}</style></defs><title>EN_Boton4_Rojo</title><g class="cls-1"><path class="cls-2" d="M39.27,19.44c-.12.82-.2,1.64-.37,2.45a18,18,0,0,1-5.42,9.76l-.14.13s0,0,0,0l5.53,5.52-.07.11H22.53V21.25l5.61,5.61a10.94,10.94,0,0,0,4-10,11.07,11.07,0,0,0-4-7.17,11.25,11.25,0,0,0-7.81-2.59c0-.16,0-.29,0-.41q0-3.11,0-6.21c0-.33.07-.45.42-.44Q32.19.22,37.48,10.42a16.49,16.49,0,0,1,1.72,6.43c0,.1,0,.19.07.29Zm-15.4,4.9v11.8H35.59l-4.32-4.33a16.91,16.91,0,0,0,6.38-10.4,16.61,16.61,0,0,0-2.2-12,16.63,16.63,0,0,0-13.82-8c0,1.38,0,2.75,0,4.13,0,.08.18.21.3.23.58.1,1.16.15,1.74.27a12.57,12.57,0,0,1,9.83,11.54,12.4,12.4,0,0,1-4.95,10.73c-.41.33-.41.33-.79,0Z"/><path class="cls-2" d="M19,30.53v.34c0,2.07,0,4.14,0,6.21,0,.35-.11.42-.44.42A18.29,18.29,0,0,1,5.72,5.93L6,5.69.45.15.51.05H16.75V16.33L11.1,10.66a10.61,10.61,0,0,0-3.9,10C8.36,27.15,12.55,30.19,19,30.53ZM15.42,1.37H3.6L8,5.73a16.82,16.82,0,0,0-6.27,9.93A16.9,16.9,0,0,0,17.63,36.11V31.79c-.67-.1-1.33-.17-2-.31A12.51,12.51,0,0,1,5.8,20.32,12.32,12.32,0,0,1,10.88,9.06c.22-.17.34-.11.51.06,1.21,1.22,2.44,2.44,3.66,3.66l.37.34Z"/><path class="cls-2" d="M25.17,35.09v-4h1.3c0,.11,0,.22,0,.33,0,1.08,0,2.17,0,3.25,0,.29-.08.42-.39.4S25.51,35.09,25.17,35.09Z"/><path class="cls-2" d="M25.17,30.25V28.44c.38,0,.75,0,1.11,0a.29.29,0,0,1,.21.19q0,.69,0,1.38a.31.31,0,0,1-.22.21C25.92,30.26,25.56,30.25,25.17,30.25Z"/><path class="cls-2" d="M14.12,2.41v4H12.8c0-.14,0-.28,0-.41,0-1,0-2.07,0-3.1,0-.38.12-.5.48-.46S13.82,2.41,14.12,2.41Z"/><path class="cls-2" d="M14.11,7.26V9.07c-.39,0-.76,0-1.14,0a.29.29,0,0,1-.18-.22c0-.45,0-.89,0-1.34A.37.37,0,0,1,13,7.27C13.37,7.24,13.72,7.26,14.11,7.26Z"/></g></svg>