<svg id="Capa_1" data-name="Capa 1" xmlns="http://www.w3.org/2000/svg" viewBox="0 0 54.01 31.46"><defs><style>.cls-1{fill:#fff;}</style></defs><title>EN_Boton2_Rojo</title><path class="cls-1" d="M0,.53A1.17,1.17,0,0,1,1.12,0H45.89a2.24,2.24,0,0,1,.52,0A.73.73,0,0,1,47,.83a.75.75,0,0,1-.68.75,5.61,5.61,0,0,1-.58,0H30.61V29.81H52.39V1.59H50.12c-.65,0-1-.31-1-.81s.37-.77,1-.77H53c.71,0,1,.28,1,1V30.44c0,.74-.29,1-1.09,1H7c-.85,0-1.24-.26-1.23-.81s.38-.78,1.21-.78H28.94V1.63H1.62V29.85c.41,0,.81,0,1.21,0a.79.79,0,1,1,0,1.57,13.33,13.33,0,0,1-2,0c-.3,0-.58-.32-.86-.5Z"/><path class="cls-1" d="M44.2,14.3c0,.68-.08,1.29-.08,1.9a.54.54,0,0,0,.3.38c.46.15.95.25,1.43.37a.85.85,0,0,1,.7.91c0,1,0,2,0,3a.8.8,0,0,1-1.11.86l-1.51-.38a2.42,2.42,0,0,1-2.66,2.11,2.38,2.38,0,0,1-2.19-2.1l-1.52.37c-.69.16-1.09-.15-1.1-.86,0-1,0-2,0-2.95a.86.86,0,0,1,.75-.93c.46-.11.93-.21,1.37-.36a.57.57,0,0,0,.3-.39c0-.59,0-1.19,0-1.91l-.7.23-4.64,1.74c-.91.33-1.36,0-1.36-.93s0-1.86,0-2.79a1,1,0,0,1,.6-1c1.81-1,3.6-2,5.41-3a.68.68,0,0,0,.43-.74c0-.54,0-1.09,0-1.63a2.92,2.92,0,1,1,5.83,0c0,.57,0,1.13,0,1.69a.61.61,0,0,0,.39.65c1.78,1,3.54,2,5.32,2.91a1.21,1.21,0,0,1,.72,1.22c0,.91,0,1.83,0,2.74s-.47,1.17-1.29.87l-4.79-1.79Zm-10.44.15.56-.18L39,12.53c.94-.35,1.34-.1,1.39.88.07,1.17.11,2.35.16,3.53a.86.86,0,0,1-.73,1c-.47.11-.93.22-1.38.35-.13,0-.33.15-.34.25,0,.44,0,.89,0,1.39.59-.15,1.08-.28,1.58-.38s1,.16,1,.79c0,.28,0,.56.07.84a.73.73,0,0,0,.76.67.75.75,0,0,0,.81-.67,3.28,3.28,0,0,0,0-.63c0-.89.41-1.17,1.26-1l1.38.33c0-.42,0-.77,0-1.11s-.08-.49-.41-.55-.82-.2-1.23-.3c-.68-.17-.85-.37-.83-1.06,0-1.18.08-2.36.13-3.53,0-.86.5-1.17,1.3-.87,1.55.57,3.09,1.16,4.64,1.74l.66.22a9.35,9.35,0,0,1,0-1.07.82.82,0,0,0-.53-.9C47,11.54,45.2,10.55,43.44,9.6a1.06,1.06,0,0,1-.64-1.09c0-.74,0-1.48,0-2.21a1.34,1.34,0,1,0-2.67,0,20,20,0,0,0,0,2.05,1.29,1.29,0,0,1-.8,1.39c-1.75.92-3.49,1.9-5.22,2.86-.16.09-.38.26-.4.42A14.13,14.13,0,0,0,33.76,14.45Z"/><path class="cls-1" d="M15.32,3.21H26.18c1,0,1.18.21,1.19,1.17V6.86c0,.89-.24,1.12-1.13,1.13H4.36C3.42,8,3.2,7.77,3.2,6.84s0-1.72,0-2.58.25-1,1-1Zm0,3.19h9.59c1,0,.89.12.9-.89,0-.72,0-.72-.74-.72H5.82c-1,0-1,0-1.05,1,0,.5.16.6.63.6C8.7,6.39,12,6.4,15.3,6.4Z"/><path class="cls-1" d="M13.63,19.2H22.7a4.69,4.69,0,0,1,.53,0,.71.71,0,0,1,.71.71.73.73,0,0,1-.63.83,1.87,1.87,0,0,1-.53,0H4.38a2.27,2.27,0,0,1-.52,0,.74.74,0,0,1-.64-.84.72.72,0,0,1,.71-.71,4.69,4.69,0,0,1,.53,0Z"/><path class="cls-1" d="M13.57,14.38H4.4c-.21,0-.48,0-.61-.06a1.4,1.4,0,0,1-.55-.73.61.61,0,0,1,.53-.73,2.14,2.14,0,0,1,.62-.06H23.21a.77.77,0,0,1,.74.8.79.79,0,0,1-.79.77H13.57Z"/><path class="cls-1" d="M8.22,11.18h-4c-.66,0-1-.3-1-.81s.36-.77,1-.77h8.12c.62,0,1,.29,1,.78s-.35.8-1,.8Z"/><path class="cls-1" d="M8.23,17.57H4.13c-.63,0-1-.37-.9-.89A.74.74,0,0,1,4,16h8.43a.77.77,0,0,1,.83.77.75.75,0,0,1-.84.79C11,17.58,9.64,17.57,8.23,17.57Z"/><path class="cls-1" d="M22.31,25H18.47a3.09,3.09,0,0,1-.53,0,.73.73,0,0,1-.66-.76.71.71,0,0,1,.64-.77,3.76,3.76,0,0,1,.58,0h7.63a3.09,3.09,0,0,1,.53,0,.73.73,0,0,1,.69.79.74.74,0,0,1-.72.76,3.73,3.73,0,0,1-.47,0Z"/><path class="cls-1" d="M22.31,28.23H18.1a.78.78,0,1,1,0-1.56c.46,0,.91,0,1.37,0h7c.58,0,.92.32.91.8s-.34.75-.89.76c-.74,0-1.48,0-2.21,0Z"/><path class="cls-1" d="M42.28,26.91a3.32,3.32,0,0,1,0,.63.72.72,0,0,1-.8.67.71.71,0,0,1-.75-.72,10.07,10.07,0,0,1,0-1.1.79.79,0,1,1,1.57,0,4.69,4.69,0,0,1,0,.53Z"/><path class="cls-1" d="M45.47,27a5.61,5.61,0,0,1,0,.58.72.72,0,0,1-.69.68.67.67,0,0,1-.82-.56,5.49,5.49,0,0,1,0-1.46.68.68,0,0,1,.81-.58.73.73,0,0,1,.71.71c0,.21,0,.42,0,.63Z"/><path class="cls-1" d="M37.52,26.89a3.75,3.75,0,0,1,0-.58.72.72,0,0,1,.77-.7.69.69,0,0,1,.76.7,6.87,6.87,0,0,1,0,1.2.77.77,0,0,1-1.54,0A4.42,4.42,0,0,1,37.52,26.89Z"/><path class="cls-1" d="M35.88,26.93a5.42,5.42,0,0,1,0,.57.73.73,0,0,1-.77.71.7.7,0,0,1-.77-.69,6.86,6.86,0,0,1,0-1.2.72.72,0,0,1,.76-.71.75.75,0,0,1,.79.74,5.61,5.61,0,0,1,0,.58Z"/><path class="cls-1" d="M9.09,26.91a1.06,1.06,0,1,1-1-1.05A1.05,1.05,0,0,1,9.09,26.91Z"/><path class="cls-1" d="M12.83,26.93a1.08,1.08,0,0,1-1.1,1,1.06,1.06,0,0,1,0-2.12A1.08,1.08,0,0,1,12.83,26.93Z"/><path class="cls-1" d="M4.32,28a1,1,0,0,1-1.07-1,1.06,1.06,0,1,1,1.07,1Z"/><path class="cls-1" d="M47.13,26.88a4.42,4.42,0,0,1,0-.63.71.71,0,0,1,.72-.64.69.69,0,0,1,.79.6,6,6,0,0,1,0,1.41.69.69,0,0,1-.81.59.7.7,0,0,1-.7-.65,5.12,5.12,0,0,1,0-.68Z"/></svg>