<svg id="Capa_1" data-name="Capa 1" xmlns="http://www.w3.org/2000/svg" viewBox="0 0 50.94 40.69"><defs><style>.cls-1{opacity:0.95;}.cls-2{fill:#fff;}</style></defs><title>EN_Boton5_Rojo</title><g class="cls-1"><path class="cls-2" d="M20.13,27.13H17.42v-.68a2,2,0,0,0-2-2H10a2,2,0,0,0-2,2v.68H5.21a2,2,0,0,0-2,2v9.5a2,2,0,0,0,2,2H20.13a2,2,0,0,0,2-2v-9.5A2,2,0,0,0,20.13,27.13ZM9.28,26.45a.67.67,0,0,1,.68-.68h5.42a.67.67,0,0,1,.68.68v.68H9.28ZM20.81,38.66a.68.68,0,0,1-.68.67H5.21a.67.67,0,0,1-.68-.67v-9.5a.68.68,0,0,1,.68-.68H20.13a.69.69,0,0,1,.68.68Z"/><path class="cls-2" d="M12,31.2h1.36v5.42H12Z"/><path class="cls-2" d="M7.92,31.2H9.28v5.42H7.92Z"/><path class="cls-2" d="M16.06,31.2h1.36v5.42H16.06Z"/></g><g class="cls-1"><path class="cls-2" d="M45.9,12.21H41.16V4.07h.68a.67.67,0,0,0,.67-.68V.68A.67.67,0,0,0,41.84,0H33.7A.67.67,0,0,0,33,.68V3.39a.67.67,0,0,0,.68.68h.68v8.14H29.63a2,2,0,0,0-2,2v21.7a2,2,0,0,0,2,2v2a.67.67,0,0,0,.68.68H33A.68.68,0,0,0,33.7,40V38h8.14v2a.67.67,0,0,0,.67.68h2.72A.67.67,0,0,0,45.9,40V38a2,2,0,0,0,2-2V14.24A2,2,0,0,0,45.9,12.21ZM34.38,1.36h6.78V2.71H34.38Zm1.35,2.71H39.8v8.14H35.73ZM32.34,39.33H31V38h1.36Zm12.21,0H43.19V38h1.36Zm2-3.39a.67.67,0,0,1-.68.68H29.63a.67.67,0,0,1-.68-.68V14.24a.68.68,0,0,1,.68-.68H45.9a.68.68,0,0,1,.68.68Z"/><path class="cls-2" d="M37.09,16.28h1.35V33.91H37.09Z"/><path class="cls-2" d="M32.34,16.28H33.7V33.91H32.34Z"/><path class="cls-2" d="M41.84,16.28h1.35V33.91H41.84Z"/></g></svg>