<svg id="Capa_1" data-name="Capa 1" xmlns="http://www.w3.org/2000/svg" viewBox="0 0 44.98 44.99"><defs><style>.cls-1{fill:#fff;}</style></defs><title>EN_Boton1_Rojo</title><path class="cls-1" d="M8.52,45a1.15,1.15,0,0,1-.62-1.2c0-.74,0-1.49,0-2.29l-.53,0H1.19C.28,41.47,0,41.19,0,40.3V34.85a6.09,6.09,0,0,1,4.83-6.14c.82-.2,1.65-.41,2.47-.59.25-.05.32-.17.34-.41a1.28,1.28,0,0,0-.55-1.25,5.42,5.42,0,0,1-2.16-4.33c0-1.2-.06-2.41,0-3.6a5.53,5.53,0,0,1,3.58-5.18,5.57,5.57,0,0,1,6.17,1.12l.35.33c1.37-3.52,3.84-5.57,7.63-5.5,3.63.06,6,2.09,7.3,5.48l.31-.28a5.81,5.81,0,0,1,9.79,4.07c0,1.13,0,2.28,0,3.42a5.7,5.7,0,0,1-2.39,4.67,1.4,1.4,0,0,0-.28,1.3.5.5,0,0,0,.29.15c.89.22,1.8.4,2.68.66a6,6,0,0,1,4.55,5A1.59,1.59,0,0,0,45,34v6.86a1.21,1.21,0,0,1-1.19.62c-2.07,0-4.13,0-6.19,0h-.53c0,.81,0,1.54,0,2.27A1.23,1.23,0,0,1,36.46,45H25.92c-.55-.38-.72-.71-.57-1.15s.47-.61,1.13-.61H30l.48,0v-.53c0-1,0-2,0-3a2.67,2.67,0,0,1,0-.4.87.87,0,0,1,1.73.1c0,1.1,0,2.2,0,3.3,0,.17,0,.34,0,.51h3v-.55c0-.83-.06-1.66,0-2.49A6.58,6.58,0,0,0,30.14,33c-1.18-.29-2.37-.55-3.54-.86-.41-.11-.58,0-.75.36-.81,1.9-1.65,3.78-2.48,5.67-.24.53-.56.75-1,.69s-.61-.35-.77-.71c-.84-1.93-1.69-3.85-2.54-5.79-.08-.19-.14-.35-.43-.28-1.48.37-3,.65-4.44,1.1a5.81,5.81,0,0,0-4.31,4.69,37.27,37.27,0,0,0-.2,5.29s0,0,.08.1c.84,0,1.7,0,2.56,0,.33,0,.43-.08.43-.41,0-1.09,0-2.17,0-3.25,0-.68.34-1.09.89-1.08s.86.41.87,1.09v3.65h3.91a.88.88,0,0,1,.5,1.6l-.2.16Zm8-25.47c0,.74,0,1.41,0,2.08a6,6,0,0,0,5.24,5.89A5.88,5.88,0,0,0,28.27,23a20.72,20.72,0,0,0,.19-3.62.47.47,0,0,0-.24-.32c-1-.61-2-1.2-3-1.78a.53.53,0,0,0-.47.06,8.49,8.49,0,0,1-6.07,2.23Zm11.92-2.44a5.81,5.81,0,0,0-3.08-5.32,5.74,5.74,0,0,0-6.52.54,5.85,5.85,0,0,0-2.29,5.45c.89,0,1.74,0,2.59,0a6.52,6.52,0,0,0,4.75-2.13c.62-.66.85-.7,1.62-.25Zm8.63,22.63c.84,0,1.63,0,2.41,0,.08,0,.21-.19.22-.29,0-.41,0-.82,0-1.23,0-.79,0-1.58,0-2.37a.84.84,0,0,1,.69-.85.82.82,0,0,1,1,.46,1.47,1.47,0,0,1,.1.59c0,1.1,0,2.2,0,3.3,0,.13.1.37.16.38.52,0,1,0,1.56,0,0-1.85.09-3.64,0-5.42a3.92,3.92,0,0,0-2.59-3.57,32.29,32.29,0,0,0-3.43-.94.87.87,0,0,0-.13.16c-.55,1.32-1.12,2.64-1.65,4a.77.77,0,0,0,.09.5c.34.65.75,1.26,1,1.93A8.08,8.08,0,0,1,37.07,39.71ZM7.88,29.76c-1.17.31-2.35.52-3.45.93A3.8,3.8,0,0,0,1.85,34c-.14,1.85-.06,3.71-.07,5.57,0,0,0,0,.07.12.4,0,.84,0,1.27,0s.4-.11.4-.41q0-1.66,0-3.33c0-.65.34-1,.87-1s.88.39.88,1c0,.93,0,1.87,0,2.81s0,.92.92.92H7.91v-.56A6.57,6.57,0,0,1,9,35.2a2.06,2.06,0,0,0,.12-2.44C8.67,31.81,8.31,30.8,7.88,29.76Zm-1.2-9c0,.5,0,.93,0,1.35A4,4,0,0,0,10.47,26a4,4,0,0,0,4.22-3.47,26.19,26.19,0,0,0,0-2.94s0,0-.09-.09C12.17,20.81,9.46,20.83,6.68,20.75Zm31.61,0c-2.77.09-5.48,0-8-1.28,0,1.08-.09,2.07,0,3.05A4,4,0,0,0,33.8,26,4.07,4.07,0,0,0,38,23.56,6.25,6.25,0,0,0,38.29,20.75Zm-23.73-3.2a4,4,0,0,0-4.7-2.8A3.93,3.93,0,0,0,6.74,19C9.44,19.09,12.11,19.06,14.56,17.55ZM38.25,19a4,4,0,0,0-7.81-1.42C32.84,19.05,35.52,19.09,38.25,19Zm-18,10a8.49,8.49,0,0,0,.2,2.08c.54,1.46,1.23,2.87,1.86,4.3a4.19,4.19,0,0,0,.21.38c.65-1.47,1.22-2.88,1.88-4.25A5.8,5.8,0,0,0,24.68,29,8.07,8.07,0,0,1,20.24,29Zm-1.7.51c0-.29,0-.51,0-.72a.79.79,0,0,0-.43-.85,7.33,7.33,0,0,1-2.28-2.45l-.19-.28a13.57,13.57,0,0,1-1.32,1.31,1.16,1.16,0,0,0-.54,1.12c0,.35.13.46.46.54A16.17,16.17,0,0,1,18.54,29.47Zm7.9-.09c.7-.24,1.35-.49,2-.68s1.51-.36,2.26-.56c.17,0,.44-.15.44-.25,0-.35.11-.82-.08-1a18.22,18.22,0,0,0-1.75-1.64,8,8,0,0,1-2.72,2.91.3.3,0,0,0-.15.24C26.43,28.7,26.44,29.05,26.44,29.38ZM33,27.71a3.54,3.54,0,0,0,0,1.13c.36,1,.81,2,1.22,3h.13c.39-1.41,1.47-2.6,1.25-4.16ZM12,27.71H9.43a3.25,3.25,0,0,0,.4,2.17c.3.65.56,1.32.84,2h.13C11.18,30.47,12.24,29.29,12,27.71Zm16.19,2.85,0,.12,4,1c-.1-.25-.19-.48-.29-.7-.17-.39-.25-1-.54-1.12s-.83.1-1.25.19ZM12.74,31.71l4-1v-.12l-3-.71a.27.27,0,0,0-.24.1C13.23,30.52,13,31.11,12.74,31.71Z"/><path class="cls-1" d="M22.23,45,22,44.82a.88.88,0,0,1-.14-1.31A.87.87,0,1,1,23,44.8l-.23.19Z"/><path class="cls-1" d="M23.37,5.42c0,.37,0,.74,0,1.1a.87.87,0,1,1-1.74,0q0-1.14,0-2.28a.87.87,0,1,1,1.74,0C23.38,4.63,23.37,5,23.37,5.42Z"/><path class="cls-1" d="M26,5.09c-.22-.19-.55-.34-.65-.59a1,1,0,0,1,.09-.88A12.17,12.17,0,0,1,27,2.13a.82.82,0,0,1,1.15.07.8.8,0,0,1,.07,1.12c-.47.53-1,1-1.51,1.51A2.2,2.2,0,0,1,26,5.09Z"/><path class="cls-1" d="M17.66,2a2,2,0,0,1,.48.28c.43.39.84.81,1.25,1.23a.88.88,0,1,1-1.24,1.24c-.43-.41-.85-.84-1.27-1.27a.82.82,0,0,1-.17-1A.91.91,0,0,1,17.66,2Z"/><path class="cls-1" d="M5.9,7.73c0-.77.33-1.18.93-1.15s.84.44.82,1.34a.91.91,0,0,1-.86,1C6.21,8.94,5.9,8.51,5.9,7.73Z"/><path class="cls-1" d="M8.9,4.75h.39a.87.87,0,0,1,0,1.73,3.27,3.27,0,0,1-.7,0,.88.88,0,0,1-.9-.87.89.89,0,0,1,.91-.88H8.9Z"/><path class="cls-1" d="M40.26,6.62a4.33,4.33,0,0,1-.94-.47A.82.82,0,0,1,39.41,5a1.68,1.68,0,0,1,1.77,0,.81.81,0,0,1,.07,1.18A4.12,4.12,0,0,1,40.26,6.62Z"/><path class="cls-1" d="M39,7.64c0,1-.45,1.42-1.1,1.25-.44-.11-.65-.43-.66-1,0-.75.16-1.13.6-1.27A.86.86,0,0,1,39,7.29,1.9,1.9,0,0,1,39,7.64Z"/><path class="cls-1" d="M7.68,3.51a4,4,0,0,1-.1.6.82.82,0,0,1-.9.54.81.81,0,0,1-.76-.72,3.28,3.28,0,0,1,0-.7.88.88,0,1,1,1.75,0v.27Z"/><path class="cls-1" d="M36,4.74a3.24,3.24,0,0,1,.44,0,.86.86,0,0,1,.74.8.81.81,0,0,1-.63.88,3.26,3.26,0,0,1-1.08,0,.79.79,0,0,1-.63-.87.85.85,0,0,1,.73-.81A3.1,3.1,0,0,1,36,4.74Z"/><path class="cls-1" d="M4.66,4.73c.14,0,.29,0,.43,0a.85.85,0,0,1,.72.82.81.81,0,0,1-.65.87,3.16,3.16,0,0,1-.92,0,.84.84,0,0,1-.76-.87.86.86,0,0,1,.83-.86h.35Z"/><path class="cls-1" d="M39.09,3.53a3.36,3.36,0,0,1-.22.74.77.77,0,0,1-.87.37A.76.76,0,0,1,37.33,4a3.61,3.61,0,0,1,0-.87.86.86,0,0,1,.9-.83.87.87,0,0,1,.84.85c0,.11,0,.23,0,.35Z"/><path class="cls-1" d="M23.36.89A.87.87,0,1,1,22.51,0,.88.88,0,0,1,23.36.89Z"/><path class="cls-1" d="M22.36,25.48a2.33,2.33,0,0,1-1.51-.63.88.88,0,0,1-.14-1.25.84.84,0,0,1,1.21-.12.8.8,0,0,0,1.11,0,.85.85,0,0,1,1.21.14.87.87,0,0,1-.12,1.22A2.54,2.54,0,0,1,22.36,25.48Z"/><path class="cls-1" d="M26.28,21.18a.86.86,0,0,1-.84.89.89.89,0,0,1-.9-.88.88.88,0,0,1,.88-.86A.84.84,0,0,1,26.28,21.18Z"/><path class="cls-1" d="M20.42,21.21a.87.87,0,1,1-1.74-.05.87.87,0,0,1,1.74.05Z"/></svg>