<?xml version="1.0" encoding="utf-8"?>
<!-- Generator: Adobe Illustrator 24.0.2, SVG Export Plug-In . SVG Version: 6.00 Build 0)  -->
<svg version="1.1" id="Capa_2_1_" xmlns="http://www.w3.org/2000/svg" xmlns:xlink="http://www.w3.org/1999/xlink" x="0px" y="0px"
	 viewBox="0 0 35.6 40.7" style="enable-background:new 0 0 35.6 40.7;" xml:space="preserve">
<style type="text/css">
	.st0{fill:#DF0817;}
</style>
<g id="Contact_form">
	<g>
		<path class="st0" d="M24.4,8.8H6.1c-0.4,0-0.7-0.3-0.7-0.7V4.2c0-0.4,0.3-0.7,0.7-0.7h18.3c0.4,0,0.7,0.3,0.7,0.7v3.9
			C25.1,8.5,24.8,8.8,24.4,8.8z M6.8,7.5h17V4.9h-17C6.8,4.9,6.8,7.5,6.8,7.5z"/>
		<path class="st0" d="M6.1,16H10c0.4,0,0.7-0.3,0.7-0.7s-0.3-0.7-0.7-0.7H6.8V12h3l-1,1L8,12.2c-0.4-0.2-0.8-0.2-1,0
			c-0.3,0.3-0.3,0.7,0,0.9l0,0l1.3,1.3c0.3,0.3,0.7,0.3,0.9,0l3.3-3.3c0.3-0.3,0.2-0.7,0-0.9c-0.3-0.2-0.7-0.2-0.9,0l-0.9,0.9
			c-0.1-0.3-0.3-0.4-0.6-0.4h-4c-0.4,0-0.7,0.3-0.7,0.7v3.9C5.5,15.7,5.8,16,6.1,16z"/>
		<path class="st0" d="M11.5,16.8l-0.9,0.9c-0.1-0.3-0.3-0.4-0.6-0.4H6.1c-0.4,0-0.7,0.3-0.7,0.7v3.9c0,0.4,0.3,0.7,0.7,0.7H10
			c0.4,0,0.7-0.3,0.7-0.7c0-0.4-0.3-0.7-0.7-0.7H6.8v-2.6h3l-1,1L8,18.8c-0.3-0.3-0.7-0.3-0.9,0s-0.3,0.7,0,0.9l0,0L8.3,21
			c0.3,0.3,0.7,0.3,0.9,0l3.3-3.3c0.3-0.3,0.2-0.7,0-0.9C12.2,16.6,11.8,16.6,11.5,16.8L11.5,16.8z"/>
		<path class="st0" d="M11.5,23.3l-0.9,0.9c-0.1-0.3-0.3-0.4-0.6-0.4H6.1c-0.4,0-0.7,0.3-0.7,0.7v3.9c0,0.4,0.3,0.7,0.7,0.7H10
			c0.4,0,0.7-0.3,0.7-0.7c0-0.4-0.3-0.7-0.7-0.7H6.8v-2.6h3l-1,1L8,25.3c-0.4-0.3-0.8-0.3-1,0c-0.3,0.3-0.3,0.7,0,0.9l0,0l1.3,1.3
			c0.3,0.3,0.7,0.3,0.9,0l3.3-3.3c0.3-0.3,0.2-0.7,0-0.9C12.2,23.1,11.8,23.1,11.5,23.3L11.5,23.3z"/>
		<path class="st0" d="M24.4,16H14c-0.4,0-0.7-0.3-0.7-0.7s0.3-0.7,0.7-0.7h10.4c0.4,0,0.7,0.3,0.7,0.7S24.8,16,24.4,16z"/>
		<path class="st0" d="M24.4,16H14c-0.4,0-0.7-0.3-0.7-0.7s0.3-0.7,0.7-0.7h10.4c0.4,0,0.7,0.3,0.7,0.7S24.8,16,24.4,16z"/>
		<path class="st0" d="M19.8,22.5H14c-0.4,0-0.7-0.3-0.7-0.7c0-0.4,0.3-0.7,0.7-0.7h5.9c0.4,0,0.7,0.3,0.7,0.7
			C20.5,22.2,20.2,22.5,19.8,22.5z"/>
		<path class="st0" d="M32.5,21.9L29,18.4V1.6C29,1.3,28.7,1,28.3,1H2.2C1.9,1,1.6,1.3,1.6,1.6v30.7c0,0.4,0.3,0.7,0.7,0.7h18.8
			c-0.3,1.8,0.1,3.5,1.1,5l0.3,0.4v1.1c0,0.4,0.3,0.7,0.7,0.7c0.4,0,0.7-0.3,0.7-0.7v-1.3c0-0.1,0-0.3-0.1-0.4l-0.4-0.6
			c-0.8-1.3-1.2-2.8-0.9-4.3h2.2c0.2,0.7,0.5,1.4,0.9,2l0.3,0.4c0.2,0.3,0.6,0.3,0.9,0.1s0.3-0.6,0.1-0.9l0,0l-0.3-0.4
			c-1-1.3-1-3.1,0.1-4.4c0.2-0.3,0.2-0.6,0-0.9l-3.4-3.4c-0.5-0.5-0.5-1.3,0-1.8s1.3-0.5,1.9,0l4.6,4.6c0.3,0.3,0.7,0.2,0.9,0
			c0.2-0.3,0.2-0.7,0-0.9L29,25.6v-5.4l2.6,2.6c0.9,0.9,1.3,2,1.3,3.2v9c0,0.6-0.2,1.3-0.5,1.8L32,37.4c-0.2,0.3-0.3,0.7-0.3,1.1
			v0.9c0,0.4,0.3,0.6,0.7,0.6l0,0c0.4,0,0.6-0.3,0.6-0.7v-0.9c0-0.1,0-0.3,0.1-0.4l0.4-0.6c0.5-0.7,0.8-1.6,0.8-2.5V26
			C34.2,24.5,33.6,23,32.5,21.9z M25.9,22.6c-1-1-2.7-1-3.7,0s-1,2.7,0,3.7l3,3c-0.4,0.7-0.7,1.5-0.7,2.3H2.9V2.3h24.8v22.1
			L25.9,22.6z"/>
		<path class="st0" d="M13.3,28.4c0,0.4,0.3,0.7,0.7,0.7h7.8c0.4,0,0.7-0.3,0.7-0.7c0-0.4-0.3-0.7-0.7-0.7H14
			C13.6,27.7,13.3,28,13.3,28.4z"/>
		<path class="st0" d="M24.4,13.4H14c-0.4,0-0.7-0.3-0.7-0.7S13.6,12,14,12h10.4c0.4,0,0.7,0.3,0.7,0.7S24.8,13.4,24.4,13.4z"/>
		<path class="st0" d="M24.4,19.9H14c-0.4,0-0.7-0.3-0.7-0.7s0.3-0.7,0.7-0.7h10.4c0.4,0,0.7,0.3,0.7,0.7S24.8,19.9,24.4,19.9z"/>
		<path class="st0" d="M19.8,26.4H14c-0.4,0-0.7-0.3-0.7-0.7S13.6,25,14,25h5.9c0.4,0,0.7,0.3,0.7,0.7S20.2,26.4,19.8,26.4z"/>
	</g>
</g>
</svg>
