<svg id="Capa_1" data-name="Capa 1" xmlns="http://www.w3.org/2000/svg" viewBox="0 0 30 30"><defs><style>.cls-1{fill:#bf0811;}</style></defs><title>12</title><path class="cls-1" d="M19.91,10.77l-.15-.09a.26.26,0,0,1-.1-.2l.1-.14a.23.23,0,0,1,.34,0l.1.14a.26.26,0,0,1-.1.2H20C20,10.77,20,10.77,19.91,10.77Z"/><path class="cls-1" d="M19.66,18.55a.25.25,0,0,1,.25-.25h0a.3.3,0,0,1,.29.25h0a.3.3,0,0,1-.29.24h0A.25.25,0,0,1,19.66,18.55Zm0-1a.25.25,0,0,1,.25-.25h0a.3.3,0,0,1,.29.25h0a.29.29,0,0,1-.29.29h0A.3.3,0,0,1,19.66,17.53Zm0-1a.3.3,0,0,1,.25-.29h0a.29.29,0,0,1,.29.29h0a.3.3,0,0,1-.29.25h0A.25.25,0,0,1,19.66,16.55Zm0-1a.25.25,0,0,1,.25-.24h0a.3.3,0,0,1,.29.24h0a.3.3,0,0,1-.29.25h0A.25.25,0,0,1,19.66,15.53Zm0-1a.25.25,0,0,1,.25-.24h0a.3.3,0,0,1,.29.24h0a.3.3,0,0,1-.29.25h0A.25.25,0,0,1,19.66,14.51Zm0-1a.3.3,0,0,1,.25-.29h0a.29.29,0,0,1,.29.29h0a.31.31,0,0,1-.29.25h0A.25.25,0,0,1,19.66,13.54Zm0-1a.25.25,0,0,1,.25-.24h0a.3.3,0,0,1,.29.24h0a.31.31,0,0,1-.29.25h0A.25.25,0,0,1,19.66,12.52Zm0-1a.25.25,0,0,1,.25-.24h0a.3.3,0,0,1,.29.24h0a.31.31,0,0,1-.29.25h0A.25.25,0,0,1,19.66,11.5Z"/><path class="cls-1" d="M23.89,20.1H8A2.14,2.14,0,0,1,5.87,18V10.14a.24.24,0,0,1,.24-.24H23.89a.24.24,0,0,1,.24.24v3.5a.24.24,0,0,1-.24.24,1.12,1.12,0,1,0,0,2.24.24.24,0,0,1,.24.24v3.5A.24.24,0,0,1,23.89,20.1ZM6.35,10.39V18A1.66,1.66,0,0,0,8,19.57H23.6v-3a1.62,1.62,0,0,1,0-3.2v-3Z"/><path class="cls-1" d="M10.19,17.38,8.93,13.74h.53l1,3.15h0l1.07-3.15h.54l-1.32,3.64Z"/><path class="cls-1" d="M13.25,13.74v3.64h-.48V13.74Z"/><path class="cls-1" d="M16,13.74a1.16,1.16,0,0,1,.83.29,1.05,1.05,0,0,1,.29.78,1.18,1.18,0,0,1-.29.82,1.16,1.16,0,0,1-.83.29H14.9v1.46h-.48V13.74Zm-.19,1.75a1.15,1.15,0,0,0,.63-.15.86.86,0,0,0,.19-.53.88.88,0,0,0-.19-.49,1.15,1.15,0,0,0-.63-.15H14.9v1.32Z"/></svg>